<svg id="Ebene_1" data-name="Ebene 1" xmlns="http://www.w3.org/2000/svg" viewBox="0 0 193 193"><defs><style>.cls-1{fill:#12a065;}.cls-2{fill:#fff;}</style></defs><title>bin-green-labelled</title><rect class="cls-1" width="193" height="193" rx="20"/><path class="cls-2" d="M127.54,53.76a26,26,0,1,1-26-26A26,26,0,0,1,127.54,53.76Z" transform="translate(-5.54 -4.76)"/><path class="cls-2" d="M73.72,126.58a6.89,6.89,0,0,1-.94.88,7.06,7.06,0,0,1-1.49.87,11.67,11.67,0,0,1-2.11.67,13.13,13.13,0,0,1-2.81.27,9.25,9.25,0,0,1-3.39-.61,7.18,7.18,0,0,1-2.63-1.8,8.31,8.31,0,0,1-1.69-2.92,12,12,0,0,1-.6-4v-1.14a12.7,12.7,0,0,1,.57-4A8.25,8.25,0,0,1,60.25,112a6.85,6.85,0,0,1,2.54-1.8,8.42,8.42,0,0,1,3.31-.62,10,10,0,0,1,3.23.46,6.5,6.5,0,0,1,2.29,1.32,6,6,0,0,1,1.43,2,9.07,9.07,0,0,1,.67,2.57H69.87a5.58,5.58,0,0,0-.37-1.31,3.08,3.08,0,0,0-.69-1,2.86,2.86,0,0,0-1.07-.64,4.6,4.6,0,0,0-1.52-.22,3.51,3.51,0,0,0-3.09,1.53,8.11,8.11,0,0,0-1.05,4.56V120a7.63,7.63,0,0,0,1.14,4.56,3.94,3.94,0,0,0,3.37,1.54,7.58,7.58,0,0,0,1.24-.09,5.33,5.33,0,0,0,.9-.23,2.39,2.39,0,0,0,.62-.31,1.77,1.77,0,0,0,.41-.32v-3.31h-3.6v-2.91h7.56Z" transform="translate(-5.54 -4.76)"/><path class="cls-2" d="M85.38,122H82.23v7h-4V109.81H85.4a10.51,10.51,0,0,1,3,.38,6.13,6.13,0,0,1,2.23,1.1,4.84,4.84,0,0,1,1.4,1.82,6.09,6.09,0,0,1,.49,2.5,6.88,6.88,0,0,1-.24,1.89,5,5,0,0,1-.69,1.49,4.5,4.5,0,0,1-1.08,1.14,6.85,6.85,0,0,1-1.42.85l4.15,7.84V129H89Zm-3.15-3.21h3.19a4,4,0,0,0,1.36-.2,2.71,2.71,0,0,0,1-.58,2.37,2.37,0,0,0,.58-.9,3,3,0,0,0,.2-1.16,2.92,2.92,0,0,0-.77-2.14A3.19,3.19,0,0,0,85.4,113H82.23Z" transform="translate(-5.54 -4.76)"/><path class="cls-2" d="M108.4,120.69h-7.59v5.14h8.91V129H96.85V109.81h12.84V113h-8.88v4.58h7.59Z" transform="translate(-5.54 -4.76)"/><path class="cls-2" d="M124.94,120.69h-7.59v5.14h8.91V129H113.39V109.81h12.84V113h-8.88v4.58h7.59Z" transform="translate(-5.54 -4.76)"/><path class="cls-2" d="M145.54,129h-4l-7.7-12.63V129h-3.95V109.81h3.95l7.72,12.66V109.81h3.94Z" transform="translate(-5.54 -4.76)"/><path class="cls-2" d="M73.94,159a6.89,6.89,0,0,1-.94.88,7.32,7.32,0,0,1-1.49.87,11.54,11.54,0,0,1-2.12.67,13,13,0,0,1-2.8.27,9.21,9.21,0,0,1-3.39-.61,7.1,7.1,0,0,1-2.63-1.8,8.33,8.33,0,0,1-1.7-2.92,12,12,0,0,1-.6-4v-1.14a12.69,12.69,0,0,1,.58-4,8.25,8.25,0,0,1,1.62-2.92,6.77,6.77,0,0,1,2.54-1.8,8.38,8.38,0,0,1,3.31-.62,10.06,10.06,0,0,1,3.23.46,6.37,6.37,0,0,1,2.28,1.32,5.9,5.9,0,0,1,1.43,2,8.76,8.76,0,0,1,.68,2.57H70.09a6.1,6.1,0,0,0-.37-1.31,3.08,3.08,0,0,0-.69-1,2.94,2.94,0,0,0-1.07-.64,4.66,4.66,0,0,0-1.53-.22,3.5,3.5,0,0,0-3.08,1.53,8.11,8.11,0,0,0-1.06,4.56v1.16A7.63,7.63,0,0,0,63.44,157a3.93,3.93,0,0,0,3.36,1.54A7.41,7.41,0,0,0,68,158.4a5.46,5.46,0,0,0,.91-.23,2.75,2.75,0,0,0,.62-.31,1.77,1.77,0,0,0,.41-.32v-3.31h-3.6v-2.91h7.56Z" transform="translate(-5.54 -4.76)"/><path class="cls-2" d="M82.44,158.23h8.4v3.17H78.49V142.21h4Z" transform="translate(-5.54 -4.76)"/><path class="cls-2" d="M105.55,157.45H98.61l-1.32,4h-4.2l7.14-19.19h3.67l7.18,19.19h-4.2Zm-5.87-3.2h4.8l-2.41-7.19Z" transform="translate(-5.54 -4.76)"/><path class="cls-2" d="M124.18,156.37a2.74,2.74,0,0,0-.14-.9,1.85,1.85,0,0,0-.56-.75,5.13,5.13,0,0,0-1.15-.67,19.4,19.4,0,0,0-1.89-.7,23.44,23.44,0,0,1-2.49-.95,8.89,8.89,0,0,1-2-1.25,5.44,5.44,0,0,1-1.39-1.65,5,5,0,0,1,0-4.38,4.84,4.84,0,0,1,1.46-1.7,7.42,7.42,0,0,1,2.24-1.09,10.31,10.31,0,0,1,2.86-.38,8.87,8.87,0,0,1,2.9.44,6.45,6.45,0,0,1,2.22,1.23,5.47,5.47,0,0,1,1.43,1.88,5.67,5.67,0,0,1,.5,2.38h-4a3.1,3.1,0,0,0-.19-1.12,2.22,2.22,0,0,0-.58-.89,3,3,0,0,0-1-.57,4.22,4.22,0,0,0-1.4-.2,4.52,4.52,0,0,0-1.35.17,2.73,2.73,0,0,0-1,.47,2,2,0,0,0-.57.71,2.2,2.2,0,0,0-.19.87,1.85,1.85,0,0,0,1,1.59,10.85,10.85,0,0,0,2.84,1.2,17.28,17.28,0,0,1,2.76,1.08,8,8,0,0,1,2,1.34,5,5,0,0,1,1.21,1.69,5.27,5.27,0,0,1,.41,2.12,5.11,5.11,0,0,1-.49,2.26,4.59,4.59,0,0,1-1.41,1.66,6.75,6.75,0,0,1-2.19,1.05,10.68,10.68,0,0,1-2.87.36,11.09,11.09,0,0,1-1.9-.17,9.66,9.66,0,0,1-1.81-.5,7.91,7.91,0,0,1-1.6-.86,5.72,5.72,0,0,1-1.29-1.21,5.8,5.8,0,0,1-.86-1.59,6.17,6.17,0,0,1-.31-2h4a3.41,3.41,0,0,0,.28,1.47,2.53,2.53,0,0,0,.77,1,3.17,3.17,0,0,0,1.19.54,6.32,6.32,0,0,0,1.56.17,4.8,4.8,0,0,0,1.33-.16,2.66,2.66,0,0,0,.94-.46,1.81,1.81,0,0,0,.54-.69A2.07,2.07,0,0,0,124.18,156.37Z" transform="translate(-5.54 -4.76)"/><path class="cls-2" d="M142.13,156.37a2.5,2.5,0,0,0-.15-.9,1.68,1.68,0,0,0-.56-.75,5,5,0,0,0-1.14-.67,19.4,19.4,0,0,0-1.89-.7,23.44,23.44,0,0,1-2.49-.95,8.89,8.89,0,0,1-2-1.25,5.44,5.44,0,0,1-1.39-1.65,4.49,4.49,0,0,1-.51-2.19,4.6,4.6,0,0,1,.53-2.19,4.84,4.84,0,0,1,1.46-1.7,7.3,7.3,0,0,1,2.24-1.09A10.29,10.29,0,0,1,139,142a8.83,8.83,0,0,1,2.9.44,6.5,6.5,0,0,1,2.23,1.23,5.47,5.47,0,0,1,1.43,1.88,5.67,5.67,0,0,1,.5,2.38h-4a3.1,3.1,0,0,0-.19-1.12,2.24,2.24,0,0,0-.59-.89,2.85,2.85,0,0,0-1-.57,4.26,4.26,0,0,0-1.4-.2,4.52,4.52,0,0,0-1.35.17,2.73,2.73,0,0,0-.95.47,2,2,0,0,0-.76,1.58,1.85,1.85,0,0,0,1,1.59,10.85,10.85,0,0,0,2.84,1.2,17.28,17.28,0,0,1,2.76,1.08,8,8,0,0,1,2,1.34,5.17,5.17,0,0,1,1.21,1.69,5.27,5.27,0,0,1,.41,2.12,5,5,0,0,1-.5,2.26,4.56,4.56,0,0,1-1.4,1.66,6.71,6.71,0,0,1-2.2,1.05,10.56,10.56,0,0,1-2.86.36,11,11,0,0,1-1.9-.17,9.66,9.66,0,0,1-1.81-.5,8.27,8.27,0,0,1-1.61-.86,5.89,5.89,0,0,1-1.28-1.21,5.54,5.54,0,0,1-.86-1.59,5.9,5.9,0,0,1-.31-2h4a3.41,3.41,0,0,0,.28,1.47,2.53,2.53,0,0,0,.77,1,3.17,3.17,0,0,0,1.19.54,6.32,6.32,0,0,0,1.56.17,4.8,4.8,0,0,0,1.33-.16,2.53,2.53,0,0,0,.93-.46,1.74,1.74,0,0,0,.55-.69A2.07,2.07,0,0,0,142.13,156.37Z" transform="translate(-5.54 -4.76)"/></svg>