<svg id="Ebene_1" data-name="Ebene 1" xmlns="http://www.w3.org/2000/svg" viewBox="0 0 193 193"><defs><style>.cls-1{fill:#e84e1b;}.cls-2{fill:#fff;}</style></defs><title>bin-red-labelled</title><rect class="cls-1" width="193" height="193" rx="20"/><path class="cls-2" d="M127.54,53.76a26,26,0,1,1-26-26A26,26,0,0,1,127.54,53.76Z" transform="translate(-5.54 -4.76)"/><path class="cls-2" d="M59.26,129H55.31l-7.7-12.63V129h-4V109.81h4l7.71,12.66V109.81h3.94Z" transform="translate(-5.54 -4.76)"/><path class="cls-2" d="M79.84,119.84a12.1,12.1,0,0,1-.6,4,8.51,8.51,0,0,1-1.66,3A7.38,7.38,0,0,1,75,128.62a8.75,8.75,0,0,1-6.62,0,7.42,7.42,0,0,1-2.59-1.87,8.58,8.58,0,0,1-1.7-3,12.1,12.1,0,0,1-.6-4V119a12.12,12.12,0,0,1,.6-3.94,8.64,8.64,0,0,1,1.68-3,7.17,7.17,0,0,1,2.58-1.88,8.75,8.75,0,0,1,6.62,0,7.29,7.29,0,0,1,2.59,1.88,8.64,8.64,0,0,1,1.68,3,12.12,12.12,0,0,1,.6,3.94Zm-4-.87a8.11,8.11,0,0,0-1.08-4.59,3.83,3.83,0,0,0-6.17,0A8.11,8.11,0,0,0,67.5,119v.87a11.2,11.2,0,0,0,.28,2.66,5.94,5.94,0,0,0,.82,1.94,3.43,3.43,0,0,0,1.31,1.18,3.8,3.8,0,0,0,1.78.41,3.48,3.48,0,0,0,3.07-1.59,8.23,8.23,0,0,0,1.07-4.6Z" transform="translate(-5.54 -4.76)"/><path class="cls-2" d="M99.67,129h-4L88,116.37V129h-4V109.81h4l7.71,12.66V109.81h3.94Z" transform="translate(-5.54 -4.76)"/><path class="cls-2" d="M116,120.69h-7.59v5.14h8.91V129H104.47V109.81h12.84V113h-8.88v4.58H116Z" transform="translate(-5.54 -4.76)"/><path class="cls-2" d="M144.85,119.84a12.38,12.38,0,0,1-.59,4,8.53,8.53,0,0,1-1.67,3,7.29,7.29,0,0,1-2.58,1.87,8.73,8.73,0,0,1-6.61,0,7.33,7.33,0,0,1-2.59-1.87,8.58,8.58,0,0,1-1.7-3,12.09,12.09,0,0,1-.61-4V119a12.12,12.12,0,0,1,.6-3.94,8.5,8.5,0,0,1,1.69-3,7.17,7.17,0,0,1,2.58-1.88,8.75,8.75,0,0,1,6.62,0,7.17,7.17,0,0,1,2.58,1.88,8.64,8.64,0,0,1,1.68,3,12.12,12.12,0,0,1,.6,3.94Zm-4-.87a8.11,8.11,0,0,0-1.08-4.59,3.83,3.83,0,0,0-6.17,0,8.11,8.11,0,0,0-1.08,4.59v.87a11.16,11.16,0,0,0,.29,2.66,5.94,5.94,0,0,0,.81,1.94,3.58,3.58,0,0,0,1.31,1.18,3.83,3.83,0,0,0,1.78.41,3.5,3.5,0,0,0,3.08-1.59,8.24,8.24,0,0,0,1.06-4.6Z" transform="translate(-5.54 -4.76)"/><path class="cls-2" d="M160.62,121.16H153V129h-3.95V109.81h12.49V113H153v5h7.59Z" transform="translate(-5.54 -4.76)"/><path class="cls-2" d="M54.26,145.41H48.38v16h-4v-16h-5.8v-3.2H54.26Z" transform="translate(-5.54 -4.76)"/><path class="cls-2" d="M73.49,161.4h-4v-8.22H61.82v8.22h-4V142.21h4V150h7.71v-7.78h4Z" transform="translate(-5.54 -4.76)"/><path class="cls-2" d="M89.84,153.09h-7.6v5.14h8.92v3.17H78.29V142.21H91.13v3.2H82.24V150h7.6Z" transform="translate(-5.54 -4.76)"/><path class="cls-2" d="M102.9,161.4V142.21h6.72a12.43,12.43,0,0,1,3,.32,6.4,6.4,0,0,1,2.23,1,4.36,4.36,0,0,1,1.4,1.65,5.27,5.27,0,0,1,.48,2.33,5.32,5.32,0,0,1-.16,1.27,4,4,0,0,1-.51,1.13,3.8,3.8,0,0,1-.85.95,4.17,4.17,0,0,1-1.22.71,4.13,4.13,0,0,1,1.44.64,4.23,4.23,0,0,1,1,1,4,4,0,0,1,.57,1.24,5.18,5.18,0,0,1,.18,1.36,5,5,0,0,1-1.8,4.22,8.1,8.1,0,0,1-5.13,1.42Zm4-11.15h2.92a3.62,3.62,0,0,0,2.26-.64,2.14,2.14,0,0,0,.73-1.74A2.22,2.22,0,0,0,112,146a4,4,0,0,0-2.4-.58h-2.76Zm0,2.8v5.18h3.38a4.28,4.28,0,0,0,1.32-.19,2.65,2.65,0,0,0,.92-.53,2.13,2.13,0,0,0,.55-.79,2.73,2.73,0,0,0,.18-1,3.5,3.5,0,0,0-.16-1.11,2.07,2.07,0,0,0-.49-.84,2.12,2.12,0,0,0-.88-.54,4.1,4.1,0,0,0-1.29-.18Z" transform="translate(-5.54 -4.76)"/><path class="cls-2" d="M125.69,161.4h-4V142.21h4Z" transform="translate(-5.54 -4.76)"/><path class="cls-2" d="M146.31,161.4h-3.95l-7.7-12.63V161.4h-4V142.21h4l7.71,12.66V142.21h3.94Z" transform="translate(-5.54 -4.76)"/><path class="cls-2" d="M161.07,156.37a2.5,2.5,0,0,0-.15-.9,1.68,1.68,0,0,0-.56-.75,5,5,0,0,0-1.14-.67,19.4,19.4,0,0,0-1.89-.7,23.44,23.44,0,0,1-2.49-.95,8.89,8.89,0,0,1-2-1.25,5.44,5.44,0,0,1-1.39-1.65,4.49,4.49,0,0,1-.51-2.19,4.6,4.6,0,0,1,.53-2.19,4.84,4.84,0,0,1,1.46-1.7,7.3,7.3,0,0,1,2.24-1.09A10.29,10.29,0,0,1,158,142a8.83,8.83,0,0,1,2.9.44,6.5,6.5,0,0,1,2.23,1.23,5.47,5.47,0,0,1,1.43,1.88,5.67,5.67,0,0,1,.5,2.38h-4a3.1,3.1,0,0,0-.19-1.12,2.24,2.24,0,0,0-.59-.89,2.85,2.85,0,0,0-1-.57,4.26,4.26,0,0,0-1.4-.2,4.52,4.52,0,0,0-1.35.17,2.73,2.73,0,0,0-.95.47,2,2,0,0,0-.76,1.58,1.85,1.85,0,0,0,1,1.59,10.85,10.85,0,0,0,2.84,1.2,17.28,17.28,0,0,1,2.76,1.08,8,8,0,0,1,2,1.34,5.17,5.17,0,0,1,1.21,1.69,5.27,5.27,0,0,1,.41,2.12,5,5,0,0,1-.5,2.26,4.56,4.56,0,0,1-1.4,1.66,6.71,6.71,0,0,1-2.2,1.05,10.56,10.56,0,0,1-2.86.36,11,11,0,0,1-1.9-.17,9.66,9.66,0,0,1-1.81-.5,8.27,8.27,0,0,1-1.61-.86,5.89,5.89,0,0,1-1.28-1.21,5.54,5.54,0,0,1-.86-1.59,5.9,5.9,0,0,1-.31-2h4a3.41,3.41,0,0,0,.28,1.47,2.53,2.53,0,0,0,.77,1,3.17,3.17,0,0,0,1.19.54,6.32,6.32,0,0,0,1.56.17,4.8,4.8,0,0,0,1.33-.16,2.53,2.53,0,0,0,.93-.46,1.74,1.74,0,0,0,.55-.69A2.07,2.07,0,0,0,161.07,156.37Z" transform="translate(-5.54 -4.76)"/></svg>