<svg id="Ebene_1" data-name="Ebene 1" xmlns="http://www.w3.org/2000/svg" viewBox="0 0 228 251.5"><defs><style>.cls-1{fill:#5dc4f3;}.cls-2{fill:#fff;}</style></defs><title>bin2-blue1-labelled</title><path class="cls-1" d="M238.22,36.5a10,10,0,0,0-10-10h-71V10a6,6,0,0,0-6-6h-42a6,6,0,0,0-6,6V26.5h-72a10,10,0,0,0-10,10v8h217Zm-90-10h-36V13h36Z" transform="translate(-15.72 -4)"/><path class="cls-1" d="M237.22,112H215.47l4.75-45.5h8a10,10,0,0,0,10-10v-8h-217v8a10,10,0,0,0,10,10h9l5,45.5h-23a6.5,6.5,0,0,0,0,13h24l11,104.5v26h145v-26l12-104.5h23a6.5,6.5,0,1,0,0-13Z" transform="translate(-15.72 -4)"/><path class="cls-2" d="M98.89,80.53a4.06,4.06,0,0,0-4.32-3.23c-3.49,0-5.54,2.59-5.54,7.07s2,7.11,5.41,7.11a4.69,4.69,0,0,0,3.62-1.57A5,5,0,0,0,99,87.7H104c-.58,4.83-4.19,7.84-9.47,7.84-6.3,0-10.34-4.35-10.34-11.17s4-11.13,10.31-11.13c5.15,0,8.67,2.75,9.24,7.29Z" transform="translate(-15.72 -4)"/><path class="cls-2" d="M111.37,90.77,110,95.06h-5.22l7.46-21.34h6L125,95.06h-5.44l-1.15-4.29Zm3.78-12.29-2.6,8.35h4.83Z" transform="translate(-15.72 -4)"/><path class="cls-2" d="M132,95.06h-4.7V73.72h9.31c2.75,0,4.28.35,5.56,1.28a5.35,5.35,0,0,1,2,4.48,5,5,0,0,1-3.55,5.15c2.11.67,2.85,1.79,3,4.6l.16,3a4.3,4.3,0,0,0,.86,2.79H140c-.58-.45-.74-.77-.8-1.86L139,90.29c-.16-2.62-1.35-3.77-3.81-3.77H132Zm4.7-12.32c1.73,0,2.72-.9,2.72-2.46s-1-2.47-2.72-2.47H132v4.93Z" transform="translate(-15.72 -4)"/><path class="cls-2" d="M148.14,73.72h7.23c4.32,0,6.59.76,8.51,2.94a11.43,11.43,0,0,1,2.62,7.62,11.92,11.92,0,0,1-2.78,8c-1.86,2-4.22,2.82-8.19,2.82h-7.39Zm8,17.24c2.17,0,3.49-.61,4.38-2.08a8.56,8.56,0,0,0,1.06-4.51,8.42,8.42,0,0,0-1-4.41,4.22,4.22,0,0,0-4.09-2.15h-3.55V91Z" transform="translate(-15.72 -4)"/><path class="cls-2" d="M176.58,89.2h-8.7V85.11h8.7Z" transform="translate(-15.72 -4)"/><path class="cls-2" d="M78.07,112.12h8.68c2.68,0,4.22.28,5.59,1.08a5.06,5.06,0,0,1,2.44,4.36,4.68,4.68,0,0,1-3,4.48c2.46,1.18,3.52,2.75,3.52,5.21a5.89,5.89,0,0,1-2.21,4.8c-1.38,1.06-2.88,1.41-5.92,1.41H78.07Zm9.28,8.28c1.73,0,2.63-.73,2.63-2.08s-.9-2.11-2.63-2.11H82.78v4.19Zm-.06,9c2,0,3.1-.89,3.1-2.59s-1-2.59-3.1-2.59H82.78v5.18Z" transform="translate(-15.72 -4)"/><path class="cls-2" d="M119.19,123c0,6.5-4.32,11-10.59,11S98,129.46,98,122.77a11.13,11.13,0,0,1,3.3-8.41,10.49,10.49,0,0,1,7.26-2.72C115,111.64,119.19,116.08,119.19,123ZM103,122.77c0,4.45,2.08,7.1,5.57,7.1s5.57-2.68,5.57-7c0-4.51-2-7.17-5.57-7.17S103,118.36,103,122.77Z" transform="translate(-15.72 -4)"/><path class="cls-2" d="M127.13,129.17l-1.35,4.29h-5.21L128,112.12h6l6.78,21.34h-5.44l-1.15-4.29Zm3.77-12.29-2.59,8.35h4.83Z" transform="translate(-15.72 -4)"/><path class="cls-2" d="M147.77,133.46h-4.71V112.12h9.32c2.75,0,4.28.35,5.56,1.28a5.35,5.35,0,0,1,2.05,4.48,5,5,0,0,1-3.55,5.15c2.11.67,2.85,1.79,3,4.6l.16,3a4.3,4.3,0,0,0,.86,2.79h-4.7c-.58-.45-.74-.77-.8-1.86l-.19-2.91c-.16-2.62-1.35-3.77-3.81-3.77h-3.2Zm4.7-12.32c1.73,0,2.72-.9,2.72-2.46s-1-2.47-2.72-2.47h-4.7v4.93Z" transform="translate(-15.72 -4)"/><path class="cls-2" d="M163.9,112.12h7.23c4.32,0,6.59.76,8.51,2.94a11.49,11.49,0,0,1,2.62,7.62,11.92,11.92,0,0,1-2.78,8c-1.86,2-4.23,2.82-8.19,2.82H163.9Zm8,17.24c2.17,0,3.49-.61,4.38-2.08a8.56,8.56,0,0,0,1.06-4.51,8.42,8.42,0,0,0-1-4.41,4.22,4.22,0,0,0-4.09-2.15H168.7v13.15Z" transform="translate(-15.72 -4)"/><path class="cls-2" d="M87.46,171.86H82.67V150.52h8.38c2.91,0,4.45.41,5.82,1.63a7.28,7.28,0,0,1,2.31,5.57,6.92,6.92,0,0,1-1.83,4.92c-1.28,1.35-2.91,2-5.37,2H87.46Zm3.78-11.36a2.95,2.95,0,1,0,0-5.89H87.46v5.89Z" transform="translate(-15.72 -4)"/><path class="cls-2" d="M105.42,167.57l-1.35,4.29H98.86l7.45-21.34h6l6.78,21.34h-5.44l-1.15-4.29Zm3.77-12.29-2.59,8.36h4.83Z" transform="translate(-15.72 -4)"/><path class="cls-2" d="M126.15,171.86h-4.8V150.52h8.39c2.91,0,4.44.41,5.82,1.63a7.27,7.27,0,0,1,2.3,5.57,6.92,6.92,0,0,1-1.82,4.92c-1.28,1.35-2.91,2-5.38,2h-4.51Zm3.78-11.36a2.95,2.95,0,1,0,0-5.89h-3.78v5.89Z" transform="translate(-15.72 -4)"/><path class="cls-2" d="M156.78,154.61H145.67v4.16h9.7v3.78h-9.7v5.21H157v4.1h-16.1V150.52h15.91Z" transform="translate(-15.72 -4)"/><path class="cls-2" d="M165.19,171.86h-4.7V150.52h9.31c2.75,0,4.29.35,5.57,1.28a5.37,5.37,0,0,1,2,4.48,5,5,0,0,1-3.56,5.15c2.12.67,2.85,1.79,3,4.61l.16,3a4.3,4.3,0,0,0,.87,2.78h-4.71c-.57-.45-.73-.77-.8-1.86l-.19-2.91c-.16-2.62-1.34-3.77-3.81-3.77h-3.2Zm4.71-12.32c1.72,0,2.72-.9,2.72-2.46s-1-2.47-2.72-2.47h-4.71v4.93Z" transform="translate(-15.72 -4)"/></svg>