<svg id="Ebene_1" data-name="Ebene 1" xmlns="http://www.w3.org/2000/svg" viewBox="0 0 231 254.5"><defs><style>.cls-1{fill:#fff;stroke:#000;stroke-miterlimit:10;stroke-width:3px;}</style></defs><title>bin2-white-no-label</title><path class="cls-1" d="M238.81,36.5a10,10,0,0,0-10-10h-71V10a6,6,0,0,0-6-6h-42a6,6,0,0,0-6,6V26.5h-72a10,10,0,0,0-10,10v7h217Zm-90-10h-36V13h36Z" transform="translate(-14.81 -2.5)"/><path class="cls-1" d="M237.81,112H216.06l4.75-45.5h8a10,10,0,0,0,10-10v-7h-217v7a10,10,0,0,0,10,10h9l5,45.5h-23a6.5,6.5,0,0,0,0,13h24l11,104.5v26h145v-26l12-104.5h23a6.5,6.5,0,0,0,0-13Z" transform="translate(-14.81 -2.5)"/></svg>