<svg id="Ebene_1" data-name="Ebene 1" xmlns="http://www.w3.org/2000/svg" viewBox="0 0 228 251.5"><defs><style>.cls-1{fill:#894d06;}</style></defs><title>bin2-brown-no-label</title><path class="cls-1" d="M238.56,36.5a10,10,0,0,0-10-10h-71V10a6,6,0,0,0-6-6h-42a6,6,0,0,0-6,6V26.5h-72a10,10,0,0,0-10,10v8h217Zm-90-10h-36V13h36Z" transform="translate(-16.06 -4)"/><path class="cls-1" d="M237.56,112H215.81l4.75-45.5h8a10,10,0,0,0,10-10v-8h-217v8a10,10,0,0,0,10,10h9l5,45.5h-23a6.5,6.5,0,0,0,0,13h24l11,104.5v26h145v-26l12-104.5h23a6.5,6.5,0,0,0,0-13Z" transform="translate(-16.06 -4)"/></svg>