<svg id="Ebene_1" data-name="Ebene 1" xmlns="http://www.w3.org/2000/svg" viewBox="0 0 231 254.5"><defs><style>.cls-1{fill:#fff;stroke:#000;stroke-miterlimit:10;stroke-width:3px;}</style></defs><title>bin2-white-labelled</title><path class="cls-1" d="M238.81,36.5a10,10,0,0,0-10-10h-71V10a6,6,0,0,0-6-6h-42a6,6,0,0,0-6,6V26.5h-72a10,10,0,0,0-10,10v7h217Zm-90-10h-36V13h36Z" transform="translate(-14.81 -2.5)"/><path class="cls-1" d="M237.81,112H216.06l4.75-45.5h8a10,10,0,0,0,10-10v-7h-217v7a10,10,0,0,0,10,10h9l5,45.5h-23a6.5,6.5,0,0,0,0,13h24l11,104.5v26h145v-26l12-104.5h23a6.5,6.5,0,0,0,0-13Z" transform="translate(-14.81 -2.5)"/><path d="M87.89,109.06,82.13,87.72H86.9l2.3,9.56c.42,1.76.64,2.79,1.19,5.32.35-2.44.54-3.72.89-5.32l2-9.56h4.61l2,9.72c.42,2.12.64,3.27.93,5.16.19-.93.48-2.66,1.09-5.16l2.36-9.72H109l-6,21.34H98.61l-2-8.9c-.48-2.2-.93-4.51-1.06-5.53-.41,2.3-.67,3.68-1.09,5.53l-2,8.9Z" transform="translate(-14.81 -2.5)"/><path d="M116.11,99.84v9.22h-4.8V87.72h4.8v8H124v-8h4.8v21.34H124V99.84Z" transform="translate(-14.81 -2.5)"/><path d="M138.35,109.06h-4.8V87.72h4.8Z" transform="translate(-14.81 -2.5)"/><path d="M152.21,109.06h-4.8V91.81H141V87.72h17.72v4.09h-6.46Z" transform="translate(-14.81 -2.5)"/><path d="M177,91.81h-11.1V96h9.69v3.78h-9.69V105h11.29v4.1H161.14V87.72H177Z" transform="translate(-14.81 -2.5)"/><path d="M100.27,135.65v11.81H97.39l-.67-2.72c-1.5,2.3-3.29,3.2-6.4,3.2-6,0-9.76-4.19-9.76-11s4.1-11.29,10.37-11.29c4.67,0,8.19,2.65,9.18,6.94l-4.64.29A4.26,4.26,0,0,0,91,129.7c-3.48,0-5.63,2.66-5.63,6.91,0,4.61,2.08,7.36,5.57,7.36a5.11,5.11,0,0,0,5.25-4.38H91v-3.94Z" transform="translate(-14.81 -2.5)"/><path d="M109.49,143.36h10.43v4.1H104.69V126.12h4.8Z" transform="translate(-14.81 -2.5)"/><path d="M126.9,143.17l-1.35,4.29h-5.21l7.45-21.34h6l6.78,21.34h-5.44L134,143.17Zm3.77-12.29-2.59,8.36h4.83Z" transform="translate(-14.81 -2.5)"/><path d="M154.58,132.8v-.35c0-1.76-1.44-2.81-3.84-2.81s-3.65.83-3.65,2.17c0,.9.64,1.54,1.95,1.83l4.32,1a9.41,9.41,0,0,1,4.7,2.11,5.25,5.25,0,0,1,1.64,4.06c0,4.42-3.4,7.14-8.93,7.14-5.76,0-9.09-2.75-9.12-7.52h4.8c.1,2.43,1.47,3.52,4.38,3.52,2.47,0,4-.93,4-2.4,0-1.06-.8-1.79-2.3-2.18l-3.87-1a11,11,0,0,1-4.64-2,5.43,5.43,0,0,1-1.7-4.19c0-4.13,3.2-6.59,8.58-6.59,3.45,0,5.88,1,7.26,3a8.47,8.47,0,0,1,1.25,4.12Z" transform="translate(-14.81 -2.5)"/><path d="M175.12,132.8v-.35c0-1.76-1.44-2.81-3.84-2.81s-3.65.83-3.65,2.17c0,.9.64,1.54,2,1.83l4.32,1a9.5,9.5,0,0,1,4.71,2.11,5.25,5.25,0,0,1,1.63,4.06c0,4.42-3.39,7.14-8.93,7.14-5.76,0-9.08-2.75-9.12-7.52H167c.1,2.43,1.47,3.52,4.39,3.52,2.46,0,4-.93,4-2.4,0-1.06-.8-1.79-2.3-2.18l-3.87-1a11.11,11.11,0,0,1-4.64-2,5.43,5.43,0,0,1-1.7-4.19c0-4.13,3.2-6.59,8.58-6.59,3.45,0,5.89,1,7.26,3a8.27,8.27,0,0,1,1.25,4.12Z" transform="translate(-14.81 -2.5)"/></svg>