<svg xmlns="http://www.w3.org/2000/svg" viewBox="0 0 228 251.5"><defs><style>.cls-1{fill:#b47d4f;}.cls-2{fill:#fff;}</style></defs><title>bin2-brown2-labelled</title><g id="Ebene_1" data-name="Ebene 1"><path class="cls-1" d="M238.22,35.79a10,10,0,0,0-10-10h-71V9.29a6,6,0,0,0-6-6h-42a6,6,0,0,0-6,6v16.5h-72a10,10,0,0,0-10,10v8h217Zm-90-10h-36V12.29h36Z" transform="translate(-15.72 -3.29)"/><path class="cls-1" d="M237.22,111.29H215.47l4.75-45.5h8a10,10,0,0,0,10-10v-8h-217v8a10,10,0,0,0,10,10h9l5,45.5h-23a6.5,6.5,0,1,0,0,13h24l11,104.5v26h145v-26l12-104.5h23a6.5,6.5,0,0,0,0-13Z" transform="translate(-15.72 -3.29)"/><path class="cls-2" d="M74.78,87h8.67c2.69,0,4.22.29,5.6,1.09a5.07,5.07,0,0,1,2.43,4.35,4.66,4.66,0,0,1-3,4.48c2.47,1.19,3.52,2.76,3.52,5.22a5.89,5.89,0,0,1-2.21,4.8c-1.37,1.06-2.88,1.41-5.91,1.41H74.78Zm9.28,8.29c1.72,0,2.62-.73,2.62-2.08s-.9-2.11-2.62-2.11H79.48v4.19Zm-.07,9c2.05,0,3.11-.89,3.11-2.59S86,99.07,84,99.07H79.48v5.18Z" transform="translate(-15.72 -3.29)"/><path class="cls-2" d="M100.57,108.35h-4.7V87h9.31c2.75,0,4.28.36,5.56,1.28a5.35,5.35,0,0,1,2.05,4.48,5,5,0,0,1-3.55,5.16c2.11.67,2.85,1.79,3,4.6l.16,3a4.3,4.3,0,0,0,.86,2.79h-4.7c-.58-.45-.74-.77-.8-1.86l-.19-2.91c-.16-2.62-1.35-3.78-3.81-3.78h-3.2ZM105.27,96c1.73,0,2.72-.9,2.72-2.47s-1-2.46-2.72-2.46h-4.7V96Z" transform="translate(-15.72 -3.29)"/><path class="cls-2" d="M137,97.85c0,6.5-4.32,11-10.59,11s-10.59-4.48-10.59-11.17a11.15,11.15,0,0,1,3.3-8.42,10.55,10.55,0,0,1,7.26-2.72C132.79,86.52,137,91,137,97.85Zm-16.16-.19c0,4.45,2.08,7.1,5.57,7.1s5.57-2.68,5.57-7c0-4.52-2.05-7.17-5.57-7.17S120.82,93.24,120.82,97.66Z" transform="translate(-15.72 -3.29)"/><path class="cls-2" d="M143.93,108.35,138.17,87h4.77l2.3,9.57c.42,1.76.64,2.79,1.18,5.31.36-2.43.55-3.71.9-5.31l2-9.57h4.6l2,9.73c.41,2.11.64,3.27.93,5.15.19-.92.47-2.65,1.08-5.15L160.31,87h4.77l-6,21.35h-4.48l-2-8.9c-.48-2.21-.93-4.51-1.06-5.53-.42,2.3-.67,3.68-1.09,5.53l-2,8.9Z" transform="translate(-15.72 -3.29)"/><path class="cls-2" d="M179.9,108.35l-6.05-10.91-2.21-4.16c.06,1.12.06,1.92.06,2.56,0,1.15,0,2.4,0,3.74v8.77h-4.39V87h5l5.89,10.63c.87,1.57,1.38,2.72,2.18,4.32-.07-.87-.07-1.44-.07-2.08l0-1.6V87h4.39v21.35Z" transform="translate(-15.72 -3.29)"/><path class="cls-2" d="M99.69,134.94v11.81H96.81L96.14,144c-1.51,2.3-3.3,3.2-6.4,3.2-6,0-9.76-4.19-9.76-11s4.09-11.3,10.36-11.3c4.68,0,8.2,2.66,9.19,7l-4.64.29A4.27,4.27,0,0,0,90.41,129c-3.49,0-5.63,2.65-5.63,6.91,0,4.61,2.08,7.36,5.56,7.36a5.12,5.12,0,0,0,5.25-4.38H90.38v-3.94Z" transform="translate(-15.72 -3.29)"/><path class="cls-2" d="M108.9,142.65h10.44v4.1H104.1V125.4h4.8Z" transform="translate(-15.72 -3.29)"/><path class="cls-2" d="M126.31,142.46,125,146.75h-5.22l7.46-21.35h6L140,146.75h-5.44l-1.16-4.29Zm3.78-12.29-2.59,8.35h4.83Z" transform="translate(-15.72 -3.29)"/><path class="cls-2" d="M154,132.09v-.35c0-1.76-1.44-2.82-3.84-2.82s-3.65.84-3.65,2.18c0,.9.64,1.54,2,1.82l4.32,1a9.45,9.45,0,0,1,4.7,2.11,5.25,5.25,0,0,1,1.63,4.06c0,4.42-3.39,7.14-8.93,7.14-5.76,0-9.08-2.76-9.12-7.52h4.8c.1,2.43,1.48,3.52,4.39,3.52,2.46,0,4-.93,4-2.4,0-1.06-.8-1.79-2.31-2.18l-3.87-1a11.11,11.11,0,0,1-4.64-2,5.45,5.45,0,0,1-1.7-4.19c0-4.13,3.2-6.6,8.58-6.6,3.46,0,5.89,1,7.26,3a8.34,8.34,0,0,1,1.25,4.13Z" transform="translate(-15.72 -3.29)"/><path class="cls-2" d="M174.54,132.09v-.35c0-1.76-1.45-2.82-3.84-2.82s-3.65.84-3.65,2.18c0,.9.64,1.54,1.95,1.82l4.32,1A9.41,9.41,0,0,1,178,136a5.25,5.25,0,0,1,1.63,4.06c0,4.42-3.39,7.14-8.92,7.14-5.76,0-9.09-2.76-9.12-7.52h4.8c.09,2.43,1.47,3.52,4.38,3.52,2.46,0,4-.93,4-2.4,0-1.06-.8-1.79-2.3-2.18l-3.88-1a11.11,11.11,0,0,1-4.64-2,5.47,5.47,0,0,1-1.69-4.19c0-4.13,3.2-6.6,8.57-6.6,3.46,0,5.89,1,7.27,3a8.45,8.45,0,0,1,1.24,4.13Z" transform="translate(-15.72 -3.29)"/></g></svg>