<svg xmlns="http://www.w3.org/2000/svg" viewBox="0 0 231 254.5"><defs><style>.cls-1{fill:#f42b10;}</style></defs><title>bin2-white2-labelled</title><g id="Ebene_1" data-name="Ebene 1"><path class="cls-1" d="M239,35.79a10,10,0,0,0-10-10H158V9.29a6,6,0,0,0-6-6H110a6,6,0,0,0-6,6v16.5H32a10,10,0,0,0-10,10v7H239Zm-90-10H113V12.29h36Z" transform="translate(-14.95 -1.79)"/><path class="cls-1" d="M238,111.29H216.2L221,65.79h8a10,10,0,0,0,10-10v-7H22v7a10,10,0,0,0,10,10h9l5,45.5H23a6.5,6.5,0,0,0,0,13H47l11,104.5v26H203v-26l12-104.5h23a6.5,6.5,0,0,0,0-13Z" transform="translate(-14.95 -1.79)"/><path d="M101.84,94.35l-6-10.91-2.21-4.16c.07,1.12.07,1.92.07,2.56,0,1.15,0,2.4,0,3.74v8.77H89.29V73h5l5.88,10.63c.87,1.57,1.38,2.72,2.18,4.32-.07-.87-.07-1.44-.07-2.08l0-1.6V73h4.39V94.35Z" transform="translate(-14.95 -1.79)"/><path d="M131.56,83.85c0,6.5-4.32,11-10.59,11s-10.59-4.48-10.59-11.17a11.19,11.19,0,0,1,3.3-8.42,10.55,10.55,0,0,1,7.26-2.72C127.37,72.52,131.56,77,131.56,83.85Zm-16.16-.19c0,4.45,2.08,7.1,5.57,7.1s5.57-2.68,5.57-7c0-4.52-2.05-7.17-5.57-7.17S115.4,79.24,115.4,83.66Z" transform="translate(-14.95 -1.79)"/><path d="M147.88,94.35l-6-10.91-2.21-4.16c.06,1.12.06,1.92.06,2.56,0,1.15,0,2.4,0,3.74v8.77h-4.38V73h5l5.89,10.63c.86,1.57,1.38,2.72,2.18,4.32-.07-.87-.07-1.44-.07-2.08l0-1.6V73h4.38V94.35Z" transform="translate(-14.95 -1.79)"/><path d="M173.1,77.1H162v4.16h9.69V85H162v5.21h11.29v4.1H157.2V73h15.9Z" transform="translate(-14.95 -1.79)"/><path d="M97.25,122.25c0,6.5-4.32,11-10.6,11s-10.59-4.48-10.59-11.17a11.19,11.19,0,0,1,3.3-8.42,10.55,10.55,0,0,1,7.26-2.72C93.05,110.92,97.25,115.37,97.25,122.25Zm-16.16-.19c0,4.45,2.08,7.1,5.56,7.1s5.57-2.68,5.57-7c0-4.52-2-7.17-5.57-7.17S81.09,117.64,81.09,122.06Z" transform="translate(-14.95 -1.79)"/><path d="M116.7,115.5H105.82v4.77h9.54v3.93h-9.54v8.55H101V111.4H116.7Z" transform="translate(-14.95 -1.79)"/><path d="M138.62,132.75h-4.8V115.5h-6.46v-4.1h17.72v4.1h-6.46Z" transform="translate(-14.95 -1.79)"/><path d="M152.35,123.53v9.22h-4.8V111.4h4.8v8h7.84v-8H165v21.35h-4.8v-9.22Z" transform="translate(-14.95 -1.79)"/><path d="M185.44,115.5H174.33v4.16H184v3.78h-9.7v5.21h11.3v4.1h-16.1V111.4h15.91Z" transform="translate(-14.95 -1.79)"/><path d="M96.51,149.8h8.67c2.69,0,4.23.29,5.6,1.09a5.05,5.05,0,0,1,2.43,4.35,4.67,4.67,0,0,1-3,4.48c2.46,1.19,3.52,2.76,3.52,5.22a5.92,5.92,0,0,1-2.21,4.8c-1.38,1.06-2.88,1.41-5.92,1.41H96.51Zm9.28,8.29c1.73,0,2.62-.73,2.62-2.08s-.89-2.11-2.62-2.11h-4.58v4.19Zm-.06,9c2,0,3.1-.89,3.1-2.59s-1.06-2.59-3.1-2.59h-4.52v5.18Z" transform="translate(-14.95 -1.79)"/><path d="M122.4,171.15h-4.8V149.8h4.8Z" transform="translate(-14.95 -1.79)"/><path d="M139.71,171.15l-6.05-10.91-2.21-4.16c.07,1.12.07,1.92.07,2.56,0,1.15,0,2.4,0,3.74v8.77h-4.38V149.8h5L138,160.43c.87,1.57,1.38,2.72,2.18,4.32-.06-.87-.06-1.44-.06-2.08l0-1.6V149.8h4.39v21.35Z" transform="translate(-14.95 -1.79)"/><path d="M161,156.49v-.35c0-1.76-1.44-2.81-3.84-2.81s-3.65.83-3.65,2.17c0,.9.64,1.54,1.95,1.82l4.32,1a9.5,9.5,0,0,1,4.71,2.11,5.25,5.25,0,0,1,1.63,4.06c0,4.42-3.39,7.14-8.93,7.14-5.76,0-9.08-2.75-9.12-7.52h4.8c.1,2.43,1.47,3.52,4.39,3.52,2.46,0,4-.93,4-2.4,0-1.06-.8-1.79-2.3-2.18l-3.87-1a11.11,11.11,0,0,1-4.64-2,5.45,5.45,0,0,1-1.7-4.19c0-4.13,3.2-6.59,8.58-6.59,3.45,0,5.89,1,7.26,3a8.27,8.27,0,0,1,1.25,4.12Z" transform="translate(-14.95 -1.79)"/></g></svg>