<svg xmlns="http://www.w3.org/2000/svg" viewBox="0 0 228 251.5"><defs><style>.cls-1{fill:#ff8300;}</style></defs><title>bin2-yellow-labelled</title><g id="Ebene_1" data-name="Ebene 1"><path class="cls-1" d="M238.56,35.79a10,10,0,0,0-10-10h-71V9.29a6,6,0,0,0-6-6h-42a6,6,0,0,0-6,6v16.5h-72a10,10,0,0,0-10,10v8h217Zm-90-10h-36V12.29h36Z" transform="translate(-16.06 -3.29)"/><path class="cls-1" d="M237.56,111.29H215.81l4.75-45.5h8a10,10,0,0,0,10-10v-8h-217v8a10,10,0,0,0,10,10h9l5,45.5h-23a6.5,6.5,0,1,0,0,13h24l11,104.5v26h145v-26l12-104.5h23a6.5,6.5,0,0,0,0-13Z" transform="translate(-16.06 -3.29)"/><path d="M73.1,94.35H68.3V73h8.39c2.91,0,4.45.42,5.82,1.64a7.27,7.27,0,0,1,2.31,5.56A6.93,6.93,0,0,1,83,85.13c-1.28,1.35-2.91,2-5.37,2H73.1ZM76.88,83a2.95,2.95,0,1,0,0-5.89H73.1V83Z" transform="translate(-16.06 -3.29)"/><path d="M92.62,90.25h10.44v4.1H87.82V73h4.8Z" transform="translate(-16.06 -3.29)"/><path d="M110,90.06l-1.34,4.29h-5.22L110.93,73h6l6.78,21.35h-5.44l-1.15-4.29Zm3.78-12.29-2.59,8.35h4.83Z" transform="translate(-16.06 -3.29)"/><path d="M137.71,79.69v-.35c0-1.76-1.44-2.82-3.84-2.82s-3.65.84-3.65,2.18c0,.9.64,1.54,1.95,1.82l4.33,1a9.5,9.5,0,0,1,4.7,2.11,5.25,5.25,0,0,1,1.63,4.06c0,4.42-3.39,7.14-8.93,7.14-5.76,0-9.08-2.75-9.12-7.52h4.8c.1,2.43,1.48,3.52,4.39,3.52,2.46,0,4-.93,4-2.4,0-1.06-.8-1.79-2.3-2.18l-3.87-1a11.11,11.11,0,0,1-4.64-2,5.45,5.45,0,0,1-1.7-4.19c0-4.13,3.2-6.6,8.58-6.6,3.46,0,5.89,1,7.26,3a8.34,8.34,0,0,1,1.25,4.13Z" transform="translate(-16.06 -3.29)"/><path d="M155.76,94.35H151V77.1H144.5V73h17.72v4.1h-6.46Z" transform="translate(-16.06 -3.29)"/><path d="M169.61,94.35h-4.8V73h4.8Z" transform="translate(-16.06 -3.29)"/><path d="M188.08,79.82a4.06,4.06,0,0,0-4.32-3.23c-3.49,0-5.54,2.59-5.54,7.07s2,7.1,5.41,7.1a4.68,4.68,0,0,0,3.62-1.56,5,5,0,0,0,.89-2.21h5.09c-.58,4.83-4.19,7.84-9.47,7.84-6.31,0-10.34-4.35-10.34-11.17s4-11.14,10.31-11.14c5.15,0,8.67,2.76,9.24,7.3Z" transform="translate(-16.06 -3.29)"/><path d="M90.35,132.75l-2.94-11.36-.29-1.19c0-.12-.13-.41-.26-.89-.16-.67-.19-.8-.38-1.41.06.77.06,1.31.06,1.66l0,2v11.14H82.19V111.4h6.75l2.72,11.17c.42,1.67.77,3.43,1,4.83.06-.35.12-.6.12-.67l.36-1.37c.09-.39.19-.87.32-1.44s.32-1.35.32-1.41l2.78-11.11h6.69v21.35H98.89V121.61l0-2c0-.41,0-.89.06-1.66-.35,1.28-.58,2.14-.67,2.43a9.16,9.16,0,0,1-.32,1l-2.91,11.39Z" transform="translate(-16.06 -3.29)"/><path d="M123.73,115.5H112.62v4.16h9.7v3.78h-9.7v5.21h11.3v4.1h-16.1V111.4h15.91Z" transform="translate(-16.06 -3.29)"/><path d="M137.17,132.75h-4.8V115.5H125.9v-4.1h17.73v4.1h-6.46Z" transform="translate(-16.06 -3.29)"/><path d="M148.62,128.46l-1.34,4.29h-5.22l7.46-21.35h6l6.79,21.35h-5.44l-1.16-4.29Zm3.78-12.29-2.59,8.35h4.83Z" transform="translate(-16.06 -3.29)"/><path d="M169.36,128.65h10.43v4.1H164.56V111.4h4.8Z" transform="translate(-16.06 -3.29)"/><path d="M98.57,159.34v11.81H95.69L95,168.43c-1.5,2.3-3.29,3.2-6.4,3.2-6,0-9.76-4.19-9.76-11s4.1-11.29,10.37-11.29c4.67,0,8.19,2.65,9.18,6.94l-4.64.29a4.26,4.26,0,0,0-4.48-3.17c-3.48,0-5.63,2.65-5.63,6.91,0,4.61,2.08,7.36,5.57,7.36a5.12,5.12,0,0,0,5.25-4.38H89.26v-3.94Z" transform="translate(-16.06 -3.29)"/><path d="M107.69,171.15H103V149.8h9.31c2.75,0,4.29.36,5.57,1.28a5.37,5.37,0,0,1,2,4.48,5,5,0,0,1-3.55,5.16c2.11.67,2.84,1.79,3,4.6l.16,3a4.36,4.36,0,0,0,.87,2.79h-4.71c-.57-.45-.73-.77-.8-1.86l-.19-2.91c-.16-2.62-1.34-3.78-3.81-3.78h-3.2Zm4.71-12.32c1.73,0,2.72-.9,2.72-2.47s-1-2.46-2.72-2.46h-4.71v4.93Z" transform="translate(-16.06 -3.29)"/><path d="M139.73,153.9H128.62v4.16h9.7v3.78h-9.7v5.21h11.3v4.1h-16.1V149.8h15.91Z" transform="translate(-16.06 -3.29)"/><path d="M159.34,153.9h-11.1v4.16h9.69v3.78h-9.69v5.21h11.29v4.1H143.44V149.8h15.9Z" transform="translate(-16.06 -3.29)"/><path d="M175.6,171.15l-6-10.91-2.21-4.16c.07,1.12.07,1.92.07,2.56,0,1.15,0,2.4,0,3.74v8.77h-4.39V149.8h5l5.88,10.63c.87,1.57,1.38,2.72,2.18,4.32-.07-.87-.07-1.44-.07-2.08l0-1.6V149.8h4.39v21.35Z" transform="translate(-16.06 -3.29)"/><path d="M100.42,188.2h7.23c4.32,0,6.59.77,8.51,3a11.48,11.48,0,0,1,2.62,7.61,11.92,11.92,0,0,1-2.78,8c-1.86,2-4.23,2.82-8.19,2.82h-7.39Zm8,17.25c2.17,0,3.48-.61,4.38-2.08a8.65,8.65,0,0,0,1.06-4.51,8.48,8.48,0,0,0-1-4.42,4.23,4.23,0,0,0-4.09-2.14h-3.56v13.15Z" transform="translate(-16.06 -3.29)"/><path d="M142.72,199.05c0,6.5-4.32,11-10.59,11s-10.59-4.48-10.59-11.17a11.18,11.18,0,0,1,3.29-8.42,10.55,10.55,0,0,1,7.26-2.72C138.53,187.72,142.72,192.17,142.72,199.05Zm-16.16-.19c0,4.45,2.08,7.1,5.57,7.1s5.56-2.68,5.56-7c0-4.52-2-7.17-5.56-7.17S126.56,194.44,126.56,198.86Z" transform="translate(-16.06 -3.29)"/><path d="M155.33,209.55h-4.8V192.3h-6.47v-4.1h17.73v4.1h-6.46Z" transform="translate(-16.06 -3.29)"/></g></svg>