<svg id="Ebene_1" data-name="Ebene 1" xmlns="http://www.w3.org/2000/svg" viewBox="0 0 228 251.5"><defs><style>.cls-1{fill:	#894d06;}.cls-2{fill:#fff;}</style></defs><title>bin2-brown1-labelled</title><path class="cls-1" d="M238.56,36.5a10,10,0,0,0-10-10h-71V10a6,6,0,0,0-6-6h-42a6,6,0,0,0-6,6V26.5h-72a10,10,0,0,0-10,10v8h217Zm-90-10h-36V13h36Z" transform="translate(-16.06 -4)"/><path class="cls-1" d="M237.56,112H215.81l4.75-45.5h8a10,10,0,0,0,10-10v-8h-217v8a10,10,0,0,0,10,10h9l5,45.5h-23a6.5,6.5,0,0,0,0,13h24l11,104.5v26h145v-26l12-104.5h23a6.5,6.5,0,0,0,0-13Z" transform="translate(-16.06 -4)"/><path class="cls-2" d="M105.1,87.72h8.67c2.69,0,4.23.28,5.6,1.08a5.06,5.06,0,0,1,2.44,4.36,4.68,4.68,0,0,1-3,4.48c2.46,1.18,3.52,2.75,3.52,5.21a5.89,5.89,0,0,1-2.21,4.8c-1.38,1.06-2.88,1.41-5.92,1.41H105.1ZM114.38,96c1.73,0,2.63-.73,2.63-2.08s-.9-2.11-2.63-2.11h-4.57V96Zm-.06,9c2.05,0,3.1-.89,3.1-2.59s-1-2.59-3.1-2.59h-4.51V105Z" transform="translate(-16.06 -4)"/><path class="cls-2" d="M131,109.06h-4.8V87.72H131Z" transform="translate(-16.06 -4)"/><path class="cls-2" d="M155.92,98.56c0,6.5-4.32,11-10.59,11s-10.6-4.48-10.6-11.17A11.16,11.16,0,0,1,138,90a10.5,10.5,0,0,1,7.26-2.72C151.73,87.24,155.92,91.68,155.92,98.56Zm-16.16-.19c0,4.45,2.08,7.11,5.57,7.11s5.56-2.69,5.56-7c0-4.51-2-7.17-5.56-7.17S139.76,94,139.76,98.37Z" transform="translate(-16.06 -4)"/><path class="cls-2" d="M83.42,147.46l-5.76-21.34h4.77l2.31,9.56c.41,1.76.64,2.79,1.18,5.32.35-2.44.54-3.72.9-5.32l2-9.56h4.61l2,9.72c.42,2.12.64,3.27.93,5.16.19-.93.48-2.66,1.09-5.16l2.37-9.72h4.76l-5.95,21.34H94.14l-2-8.9c-.48-2.2-.93-4.51-1-5.53-.42,2.3-.68,3.68-1.09,5.53l-2,8.9Z" transform="translate(-16.06 -4)"/><path class="cls-2" d="M110.46,143.17l-1.34,4.29H103.9l7.46-21.34h6l6.79,21.34h-5.44l-1.16-4.29Zm3.78-12.29-2.59,8.36h4.83Z" transform="translate(-16.06 -4)"/><path class="cls-2" d="M138.14,132.8v-.35c0-1.76-1.44-2.81-3.84-2.81s-3.65.83-3.65,2.17c0,.9.64,1.54,2,1.83l4.32,1a9.45,9.45,0,0,1,4.7,2.11,5.25,5.25,0,0,1,1.63,4.06c0,4.42-3.39,7.14-8.93,7.14-5.76,0-9.08-2.75-9.11-7.52H130c.1,2.43,1.48,3.52,4.39,3.52,2.46,0,4-.93,4-2.4,0-1.06-.8-1.79-2.31-2.18l-3.87-1a11.11,11.11,0,0,1-4.64-2,5.43,5.43,0,0,1-1.7-4.19c0-4.13,3.2-6.59,8.58-6.59,3.46,0,5.89,1,7.26,3a8.27,8.27,0,0,1,1.25,4.12Z" transform="translate(-16.06 -4)"/><path class="cls-2" d="M156.19,147.46h-4.8V130.21h-6.46v-4.09h17.72v4.09h-6.46Z" transform="translate(-16.06 -4)"/><path class="cls-2" d="M181,130.21h-11.1v4.16h9.69v3.78h-9.69v5.21h11.29v4.1H165.12V126.12H181Z" transform="translate(-16.06 -4)"/></svg>