<svg xmlns="http://www.w3.org/2000/svg" viewBox="0 0 228 251.5"><defs><style>.cls-1{fill:#ad9d9d;}.cls-2{fill:#fff;}</style></defs><title>bin2-grey-labelled</title><g id="Ebene_1" data-name="Ebene 1"><path class="cls-1" d="M238.81,35.79a10,10,0,0,0-10-10h-71V9.29a6,6,0,0,0-6-6h-42a6,6,0,0,0-6,6v16.5h-72a10,10,0,0,0-10,10v8h217Zm-90-10h-36V12.29h36Z" transform="translate(-16.31 -3.29)"/><path class="cls-1" d="M237.81,111.29H216.06l4.75-45.5h8a10,10,0,0,0,10-10v-8h-217v8a10,10,0,0,0,10,10h9l5,45.5h-23a6.5,6.5,0,1,0,0,13h24l11,104.5v26h145v-26l12-104.5h23a6.5,6.5,0,0,0,0-13Z" transform="translate(-16.31 -3.29)"/><path class="cls-2" d="M61.16,108.35H56.45V87h9.31c2.75,0,4.29.36,5.57,1.28a5.37,5.37,0,0,1,2,4.48,5,5,0,0,1-3.55,5.16c2.11.67,2.84,1.79,3,4.6l.16,3a4.36,4.36,0,0,0,.87,2.79H69.15c-.57-.45-.73-.77-.8-1.86l-.19-2.91C68,101,66.82,99.8,64.35,99.8H61.16ZM65.86,96c1.73,0,2.72-.9,2.72-2.47s-1-2.46-2.72-2.46h-4.7V96Z" transform="translate(-16.31 -3.29)"/><path class="cls-2" d="M93.19,91.1H82.08v4.16h9.7V99h-9.7v5.21h11.3v4.1H77.28V87H93.19Z" transform="translate(-16.31 -3.29)"/><path class="cls-2" d="M108.74,93.69v-.35c0-1.76-1.44-2.82-3.84-2.82s-3.65.84-3.65,2.18c0,.9.64,1.54,2,1.82l4.32,1a9.5,9.5,0,0,1,4.71,2.11,5.28,5.28,0,0,1,1.63,4.06c0,4.42-3.39,7.14-8.93,7.14-5.76,0-9.09-2.75-9.12-7.52h4.8c.1,2.43,1.47,3.52,4.38,3.52,2.47,0,4-.93,4-2.4,0-1.06-.8-1.79-2.3-2.18l-3.87-1a11,11,0,0,1-4.64-2,5.45,5.45,0,0,1-1.7-4.19c0-4.13,3.2-6.6,8.58-6.6,3.45,0,5.88,1,7.26,3a8.44,8.44,0,0,1,1.25,4.13Z" transform="translate(-16.31 -3.29)"/><path class="cls-2" d="M122.47,108.35h-4.8V87h4.8Z" transform="translate(-16.31 -3.29)"/><path class="cls-2" d="M127.23,87h7.23c4.33,0,6.6.77,8.52,3a11.48,11.48,0,0,1,2.62,7.61,11.92,11.92,0,0,1-2.78,8c-1.86,2-4.23,2.82-8.19,2.82h-7.4Zm8,17.25c2.18,0,3.49-.61,4.39-2.08a10.15,10.15,0,0,0,0-8.93,4.24,4.24,0,0,0-4.1-2.14H132v13.15Z" transform="translate(-16.31 -3.29)"/><path class="cls-2" d="M166.43,87v14.44c0,2.68-.7,4.38-2.3,5.56a11.6,11.6,0,0,1-12.51,0c-1.6-1.18-2.31-2.88-2.31-5.56V87h4.8v14.12c0,1.44.23,2.08.87,2.68a4.21,4.21,0,0,0,2.88,1,4.27,4.27,0,0,0,2.91-1c.64-.6.86-1.24.86-2.68V87Z" transform="translate(-16.31 -3.29)"/><path class="cls-2" d="M174.85,104.06l-1.35,4.29h-5.21L175.75,87h6l6.78,21.35h-5.44l-1.15-4.29Zm3.78-12.29-2.6,8.35h4.83Z" transform="translate(-16.31 -3.29)"/><path class="cls-2" d="M195.58,104.25H206v4.1H190.79V87h4.79Z" transform="translate(-16.31 -3.29)"/><path class="cls-2" d="M83.67,146.75,77.91,125.4h4.76L85,135c.41,1.76.64,2.79,1.18,5.31.35-2.43.55-3.71.9-5.31l2-9.57h4.61l2,9.73c.41,2.11.64,3.27.92,5.15.2-.92.48-2.65,1.09-5.15l2.37-9.73h4.77l-5.95,21.35H94.39l-2-8.9c-.48-2.21-.92-4.51-1.05-5.53-.42,2.3-.67,3.68-1.09,5.53l-2,8.9Z" transform="translate(-16.31 -3.29)"/><path class="cls-2" d="M110.71,142.46l-1.35,4.29h-5.21l7.45-21.35h6l6.78,21.35h-5.44l-1.15-4.29Zm3.77-12.29-2.59,8.35h4.83Z" transform="translate(-16.31 -3.29)"/><path class="cls-2" d="M138.39,132.09v-.35c0-1.76-1.44-2.82-3.84-2.82s-3.65.84-3.65,2.18c0,.9.64,1.54,1.95,1.82l4.32,1a9.41,9.41,0,0,1,4.7,2.11,5.25,5.25,0,0,1,1.63,4.06c0,4.42-3.39,7.14-8.92,7.14-5.76,0-9.09-2.76-9.12-7.52h4.8c.09,2.43,1.47,3.52,4.38,3.52,2.47,0,4-.93,4-2.4,0-1.06-.8-1.79-2.3-2.18l-3.88-1a11.11,11.11,0,0,1-4.64-2,5.47,5.47,0,0,1-1.69-4.19c0-4.13,3.2-6.6,8.57-6.6,3.46,0,5.89,1,7.27,3a8.55,8.55,0,0,1,1.25,4.13Z" transform="translate(-16.31 -3.29)"/><path class="cls-2" d="M156.43,146.75h-4.8V129.5h-6.46v-4.1H162.9v4.1h-6.47Z" transform="translate(-16.31 -3.29)"/><path class="cls-2" d="M181.26,129.5h-11.1v4.16h9.7v3.78h-9.7v5.21h11.3v4.1h-16.1V125.4h15.9Z" transform="translate(-16.31 -3.29)"/></g></svg>