<svg xmlns="http://www.w3.org/2000/svg" viewBox="0 0 231 254.5"><defs><style>.cls-1,.cls-2{fill:#fff;}.cls-1{stroke:#000;stroke-width:3px;}.cls-1,.cls-2,.cls-3{stroke-miterlimit:10;}.cls-2,.cls-3{stroke:red;stroke-width:14px;}.cls-3{fill:none;}</style></defs><title>bin2-white-traffic-sign</title><g id="Ebene_1" data-name="Ebene 1"><path class="cls-1" d="M239,35.89a10,10,0,0,0-10-10H158V9.39a6,6,0,0,0-6-6H110a6,6,0,0,0-6,6v16.5H32a10,10,0,0,0-10,10v7H239Zm-90-10H113V12.39h36Z" transform="translate(-14.95 -1.89)"/><path class="cls-1" d="M238,111.39H216.2L221,65.89h8a10,10,0,0,0,10-10v-7H22v7a10,10,0,0,0,10,10h9l5,45.5H23a6.5,6.5,0,0,0,0,13H47l11,104.5v26H203v-26l12-104.5h23a6.5,6.5,0,0,0,0-13Z" transform="translate(-14.95 -1.89)"/><circle class="cls-2" cx="131.23" cy="123.18" r="51.61" transform="translate(-26.04 231.46) rotate(-80.93)"/><line class="cls-3" x1="152.45" y1="157.19" x2="80.11" y2="84.86"/></g></svg>