<svg xmlns="http://www.w3.org/2000/svg" viewBox="0 0 228 251.5"><defs><style>.cls-1{fill:#02bd6f;}.cls-2{fill:#fff;}</style></defs><title>bin2-green-labelled</title><g id="Ebene_1" data-name="Ebene 1"><path class="cls-1" d="M239,36.5a10,10,0,0,0-10-10H158V10a6,6,0,0,0-6-6H110a6,6,0,0,0-6,6V26.5H32a10,10,0,0,0-10,10v8H239Zm-90-10H113V13h36Z" transform="translate(-16.45 -4)"/><path class="cls-1" d="M238,112H216.2L221,66.5h8a10,10,0,0,0,10-10v-8H22v8a10,10,0,0,0,10,10h9L46,112H23a6.5,6.5,0,1,0,0,13H47L58,229.5v26H203v-26L215,125h23a6.5,6.5,0,0,0,0-13Z" transform="translate(-16.45 -4)"/><path class="cls-2" d="M99,97.25v11.81H96.08l-.67-2.72c-1.5,2.3-3.3,3.2-6.4,3.2-6,0-9.76-4.19-9.76-11s4.1-11.29,10.37-11.29c4.67,0,8.19,2.65,9.18,6.94l-4.64.29a4.26,4.26,0,0,0-4.48-3.17c-3.49,0-5.63,2.66-5.63,6.91,0,4.61,2.08,7.36,5.57,7.36a5.11,5.11,0,0,0,5.25-4.38H89.65V97.25Z" transform="translate(-16.45 -4)"/><path class="cls-2" d="M108.08,109.06h-4.7V87.72h9.31c2.75,0,4.29.35,5.57,1.28a5.37,5.37,0,0,1,2,4.48,5,5,0,0,1-3.56,5.15c2.12.67,2.85,1.79,3,4.6l.16,3a4.36,4.36,0,0,0,.87,2.79h-4.71c-.57-.45-.73-.77-.8-1.86l-.19-2.91c-.16-2.62-1.34-3.77-3.81-3.77h-3.2Zm4.71-12.32c1.72,0,2.72-.9,2.72-2.46s-1-2.47-2.72-2.47h-4.71v4.93Z" transform="translate(-16.45 -4)"/><path class="cls-2" d="M140.11,91.81H129V96h9.7v3.78H129V105H140.3v4.1H124.21V87.72h15.9Z" transform="translate(-16.45 -4)"/><path class="cls-2" d="M159.73,91.81h-11.1V96h9.69v3.78h-9.69V105h11.29v4.1H143.83V87.72h15.9Z" transform="translate(-16.45 -4)"/><path class="cls-2" d="M176,109.06l-6-10.91L167.73,94c.06,1.12.06,1.92.06,2.56,0,1.15,0,2.4,0,3.74v8.77h-4.39V87.72h5l5.89,10.62c.86,1.57,1.38,2.72,2.18,4.32-.07-.87-.07-1.44-.07-2.08l0-1.6V87.72h4.38v21.34Z" transform="translate(-16.45 -4)"/><path class="cls-2" d="M100.42,135.65v11.81H97.54l-.67-2.72c-1.51,2.3-3.3,3.2-6.4,3.2-6,0-9.76-4.19-9.76-11s4.09-11.29,10.36-11.29c4.68,0,8.2,2.65,9.19,6.94l-4.64.29a4.27,4.27,0,0,0-4.48-3.17c-3.49,0-5.63,2.66-5.63,6.91,0,4.61,2.08,7.36,5.56,7.36a5.11,5.11,0,0,0,5.25-4.38H91.11v-3.94Z" transform="translate(-16.45 -4)"/><path class="cls-2" d="M109.63,143.36h10.44v4.1H104.83V126.12h4.8Z" transform="translate(-16.45 -4)"/><path class="cls-2" d="M127,143.17l-1.34,4.29h-5.22l7.46-21.34h6l6.79,21.34h-5.44l-1.16-4.29Zm3.78-12.29-2.59,8.36h4.83Z" transform="translate(-16.45 -4)"/><path class="cls-2" d="M154.72,132.8v-.35c0-1.76-1.44-2.81-3.84-2.81s-3.65.83-3.65,2.17c0,.9.64,1.54,2,1.83l4.31,1a9.5,9.5,0,0,1,4.71,2.11,5.25,5.25,0,0,1,1.63,4.06c0,4.42-3.39,7.14-8.93,7.14-5.76,0-9.08-2.75-9.12-7.52h4.8c.1,2.43,1.48,3.52,4.39,3.52,2.46,0,4-.93,4-2.4,0-1.06-.8-1.79-2.31-2.18l-3.87-1a11.11,11.11,0,0,1-4.64-2,5.43,5.43,0,0,1-1.7-4.19c0-4.13,3.2-6.59,8.58-6.59,3.45,0,5.89,1,7.26,3a8.27,8.27,0,0,1,1.25,4.12Z" transform="translate(-16.45 -4)"/><path class="cls-2" d="M175.26,132.8v-.35c0-1.76-1.44-2.81-3.84-2.81s-3.64.83-3.64,2.17c0,.9.64,1.54,1.95,1.83l4.32,1a9.41,9.41,0,0,1,4.7,2.11,5.25,5.25,0,0,1,1.63,4.06c0,4.42-3.39,7.14-8.92,7.14-5.76,0-9.09-2.75-9.12-7.52h4.8c.09,2.43,1.47,3.52,4.38,3.52,2.46,0,4-.93,4-2.4,0-1.06-.8-1.79-2.31-2.18l-3.87-1a11.11,11.11,0,0,1-4.64-2,5.42,5.42,0,0,1-1.69-4.19c0-4.13,3.2-6.59,8.57-6.59,3.46,0,5.89,1,7.27,3a8.37,8.37,0,0,1,1.24,4.12Z" transform="translate(-16.45 -4)"/></g></svg>