<svg xmlns="http://www.w3.org/2000/svg" viewBox="0 0 228 251.5"><defs><style>.cls-1{fill:#ff8300;}</style></defs><title>bin2-yellow-no-label</title><g id="Ebene_1" data-name="Ebene 1"><path class="cls-1" d="M238.56,35.79a10,10,0,0,0-10-10h-71V9.29a6,6,0,0,0-6-6h-42a6,6,0,0,0-6,6v16.5h-72a10,10,0,0,0-10,10v8h217Zm-90-10h-36V12.29h36Z" transform="translate(-16.06 -3.29)"/><path class="cls-1" d="M237.56,111.29H215.81l4.75-45.5h8a10,10,0,0,0,10-10v-8h-217v8a10,10,0,0,0,10,10h9l5,45.5h-23a6.5,6.5,0,1,0,0,13h24l11,104.5v26h145v-26l12-104.5h23a6.5,6.5,0,0,0,0-13Z" transform="translate(-16.06 -3.29)"/></g></svg>