<svg xmlns="http://www.w3.org/2000/svg" viewBox="0 0 228 251.5"><defs><style>.cls-1{fill:#02bd6f;}</style></defs><title>bin2-green-no-label</title><g id="Ebene_1" data-name="Ebene 1"><path class="cls-1" d="M239,36.5a10,10,0,0,0-10-10H158V10a6,6,0,0,0-6-6H110a6,6,0,0,0-6,6V26.5H32a10,10,0,0,0-10,10v8H239Zm-90-10H113V13h36Z" transform="translate(-16.45 -4)"/><path class="cls-1" d="M238,112H216.2L221,66.5h8a10,10,0,0,0,10-10v-8H22v8a10,10,0,0,0,10,10h9L46,112H23a6.5,6.5,0,1,0,0,13H47L58,229.5v26H203v-26L215,125h23a6.5,6.5,0,0,0,0-13Z" transform="translate(-16.45 -4)"/></g></svg>