<?xml version="1.0" standalone="no"?>
<!DOCTYPE svg PUBLIC "-//W3C//DTD SVG 20010904//EN"
 "http://www.w3.org/TR/2001/REC-SVG-20010904/DTD/svg10.dtd">
<svg version="1.0" xmlns="http://www.w3.org/2000/svg"
 width="1257.000000pt" height="1280.000000pt" viewBox="0 0 1257.000000 1280.000000"
 preserveAspectRatio="xMidYMid meet">
<g transform="translate(0.000000,1280.000000) scale(0.100000,-0.100000)"
fill="#12A065" stroke="none">
<path d="M6035 12794 c-1140 -57 -2229 -406 -3145 -1009 -591 -389 -1156 -920
-1602 -1505 -624 -821 -1023 -1715 -1187 -2660 -172 -992 -120 -2112 141
-3030 278 -982 733 -1816 1385 -2543 232 -258 571 -567 853 -778 805 -603
1787 -1015 2809 -1180 607 -97 1082 -112 1631 -48 1029 119 2145 508 2820 983
318 224 663 529 1105 977 648 657 811 892 1169 1682 327 723 458 1255 533
2162 21 264 24 890 5 1105 -63 700 -189 1231 -435 1835 -76 186 -278 593 -388
780 -618 1057 -1459 1897 -2455 2455 -756 424 -1547 670 -2429 755 -151 15
-658 27 -810 19z m860 -224 c598 -39 1071 -167 1612 -434 1087 -538 1994
-1447 2434 -2441 237 -536 360 -979 426 -1530 22 -190 25 -863 5 -1075 -113
-1169 -483 -2056 -1221 -2925 -124 -147 -496 -514 -646 -639 -612 -509 -1253
-854 -1969 -1057 -262 -74 -558 -128 -1048 -190 l-97 -12 -6 -61 c-3 -34 -14
-200 -25 -371 -34 -513 -51 -646 -96 -742 -68 -143 -171 -136 -519 36 -397
197 -734 422 -1125 750 -162 136 -568 542 -697 696 -524 629 -757 1153 -675
1521 119 535 753 1433 1410 1997 310 266 725 540 1062 701 141 67 227 96 303
103 73 7 90 -7 117 -94 24 -77 65 -293 80 -423 44 -369 87 -558 147 -637 21
-29 30 -33 68 -33 79 0 320 93 553 212 364 188 723 463 1151 883 759 745 1313
1560 1381 2033 32 217 -46 407 -357 870 -620 924 -1349 1581 -2278 2052 -352
178 -579 248 -627 193 -44 -51 -67 -213 -78 -560 -14 -409 -45 -586 -115 -639
-66 -50 -295 -124 -695 -224 -1063 -268 -1963 -765 -2714 -1500 -476 -466
-827 -967 -1061 -1515 -218 -510 -436 -1510 -471 -2155 -19 -363 60 -927 205
-1457 161 -586 381 -1106 691 -1628 191 -321 277 -502 252 -527 -59 -59 -456
315 -782 737 -619 800 -1051 1843 -1214 2935 -162 1080 -58 2200 296 3194 394
1106 1174 2109 2225 2859 642 459 1470 844 2078 966 323 65 762 118 1115 134
168 8 771 6 905 -3z"/>
</g>
</svg>
