<svg width="470" height="575" xmlns="http://www.w3.org/2000/svg">
 <metadata id="metadata8">image/svg+xml</metadata>

 <g>
  <title>background</title>
  <rect fill="none" id="canvas_background" height="577" width="472" y="-1" x="-1"/>
 </g>
 <g>
  <title>Layer 1</title>
  <g id="g10" transform="matrix(1.3333333,0,0,-1.3333333,0,1586.6667) ">
   <g id="g12" transform="translate(0.75,-0.75) scale(0.10000000149011612) ">
    <path fill="#ffffff" fill-rule="evenodd" d="m2318.830381,11612.990992c-402.46,2.17 -821.75,-1.63 -1215.21,0c-39.83,-13.7 -63.14,-43.95 -83.8,-76.82c0,-55.87 0,-111.75 0,-167.62c76.7,-0.13 157.9,6.34 237.45,6.99c28.75,0.23 60.15,-7.75 90.79,-6.99c160.24,4.01 319.96,0 481.9,0c235.74,0 466.52,6.06 670.45,0c17.38,76.32 10.06,186.44 -34.92,223.49c-44.16,26.32 -96.67,20.68 -146.66,20.95zm439.99,-237.45c158.3,-15.53 292.97,5.22 481.89,-13.97c106.04,-40.63 183.35,-109.97 237.45,-202.54c45.8,-120.29 28.44,-338.27 20.96,-488.87c-8.19,-1.13 -5.9,-12.73 -6.99,-20.95c-30.15,-60.64 -81.26,-100.32 -132.7,-139.68c-161.88,-38.96 -343.96,-13.97 -530.77,-13.97c-182.08,0 -372.23,0 -551.73,0c-20.75,144.54 6.78,337.36 -13.97,481.89c-21.12,27.76 -54.42,43.36 -97.77,48.89c-221.99,8.87 -512.39,11.9 -761.25,6.99c-75.98,-1.51 -150.31,-6.94 -195.56,-55.88c-15.66,-147.29 -2.79,-323.12 -6.98,-481.89c-172.61,0 -355.67,0 -530.78,0c-177.27,0 -349.52,-25.06 -502.84,13.97c-64.47,37.97 -115.83,89.03 -146.67,160.63c-8.79,144.37 -19.81,343.63 13.97,467.92c51.25,104.72 134.05,177.91 244.44,223.49c80.15,13.95 167.49,6.77 251.42,6.98c81.62,0.21 160.82,3.53 230.47,0c-25.26,304.62 101,457.72 335.23,502.85c446.97,0 893.95,0 1340.92,0c49.79,-13.07 96.41,-29.3 139.68,-48.89c71.57,-51.81 131.52,-115.24 167.61,-202.53c19.7,-66.44 13.15,-159.13 13.97,-244.44" id="path14"/>
    <path fill="none" stroke="#ffffff" stroke-width="10" stroke-miterlimit="4" d="m2318.830381,11612.990992c-402.46,2.17 -821.75,-1.63 -1215.21,0c-39.83,-13.7 -63.14,-43.95 -83.8,-76.82c0,-55.87 0,-111.75 0,-167.62c76.7,-0.13 157.9,6.34 237.45,6.99c28.75,0.23 60.15,-7.75 90.79,-6.99c160.24,4.01 319.96,0 481.9,0c235.74,0 466.52,6.06 670.45,0c17.38,76.32 10.06,186.44 -34.92,223.49c-44.16,26.32 -96.67,20.68 -146.66,20.95zm439.99,-237.45c158.3,-15.53 292.97,5.22 481.89,-13.97c106.04,-40.63 183.35,-109.97 237.45,-202.54c45.8,-120.29 28.44,-338.27 20.96,-488.87c-8.19,-1.13 -5.9,-12.73 -6.99,-20.95c-30.15,-60.64 -81.26,-100.32 -132.7,-139.68c-161.88,-38.96 -343.96,-13.97 -530.77,-13.97c-182.08,0 -372.23,0 -551.73,0c-20.75,144.54 6.78,337.36 -13.97,481.89c-21.12,27.76 -54.42,43.36 -97.77,48.89c-221.99,8.87 -512.39,11.9 -761.25,6.99c-75.98,-1.51 -150.31,-6.94 -195.56,-55.88c-15.66,-147.29 -2.79,-323.12 -6.98,-481.89c-172.61,0 -355.67,0 -530.78,0c-177.27,0 -349.52,-25.06 -502.84,13.97c-64.47,37.97 -115.83,89.03 -146.67,160.63c-8.79,144.37 -19.81,343.63 13.97,467.92c51.25,104.72 134.05,177.91 244.44,223.49c80.15,13.95 167.49,6.77 251.42,6.98c81.62,0.21 160.82,3.53 230.47,0c-25.26,304.62 101,457.72 335.23,502.85c446.97,0 893.95,0 1340.92,0c49.79,-13.07 96.41,-29.3 139.68,-48.89c71.57,-51.81 131.52,-115.24 167.61,-202.53c19.7,-66.44 13.15,-159.13 13.97,-244.44z" id="path16"/>
    <path fill="#ffffff" fill-rule="evenodd" d="m244.600381,10306.990992c318.93,0 637.87,0 956.8,0c0,-265.39 0,-530.78 0,-796.17c-143.4,-16.01 -332.82,-2.44 -495.86,-6.98c-51.16,-1.43 -104.31,2.68 -139.68,-27.93c-7.21,-58.43 4.98,-97.46 34.92,-118.73c27.64,-21.24 54.49,-43.29 76.82,-69.85c152.74,-142.91 294.31,-297 446.98,-439.98c22.9,-28.32 50.36,-52.07 76.82,-76.82c15.89,-32.99 57.44,-40.33 69.84,-76.83c20.79,-4.82 25.52,-25.69 41.9,-34.92c14.61,-8.66 26.25,-20.3 34.92,-34.91c31.49,-17.41 44.32,-53.47 76.83,-69.85c71.48,-77.5 146.2,-151.76 223.48,-223.48c16.63,-8.99 33.32,-17.89 48.89,-27.93c27.7,4.4 20.01,-26.57 48.89,-20.96c90.92,9.18 128.2,72 188.56,111.75c45.73,54.36 95.72,104.48 146.67,153.64c92.94,104.93 194.03,201.72 286.33,307.3c96.45,101.42 193.29,202.48 286.35,307.29c50.81,49.3 94.42,105.79 146.66,153.64c19.11,29.78 50.74,47.05 69.85,76.83c11.61,13.98 25.34,25.87 27.93,48.89c14.37,16.37 35.43,-13.79 34.92,20.94c-7,21.24 -11.52,8.92 -20.96,0c-7.01,9.29 -6.6,25.99 -20.95,27.94c-10.86,21.73 -31.51,33.68 -62.85,34.92c-167.89,20.68 -383.81,-6.67 -551.73,13.97c-16.25,242.16 -2.37,514.45 -6.99,768.23c321.26,0 642.52,0 963.79,0c0,-582.27 0,-1219.29 0,-1822.8c0,-195.43 21.97,-400.3 -69.84,-537.76c-36.86,-79.56 -105.73,-127.08 -167.62,-181.59c-66.52,-31.26 -137.06,-58.49 -223.49,-69.84c-691.4,0 -1382.81,0 -2074.23,0c-57.42,7.75 -107.84,22.52 -160.63,34.92c-140.73,71.12 -243.02,180.67 -293.32,342.21c-16.18,724.12 -2.41,1478.17 -6.98,2213.91c-0.6,9.91 -1.16,19.78 6.98,20.95" id="path18"/>
    <path fill="none" stroke="#ffffff" stroke-width="10" stroke-miterlimit="4" d="m244.600381,10306.990992c318.93,0 637.87,0 956.8,0c0,-265.39 0,-530.78 0,-796.17c-143.4,-16.01 -332.82,-2.44 -495.86,-6.98c-51.16,-1.43 -104.31,2.68 -139.68,-27.93c-7.21,-58.43 4.98,-97.46 34.92,-118.73c27.64,-21.24 54.49,-43.29 76.82,-69.85c152.74,-142.91 294.31,-297 446.98,-439.98c22.9,-28.32 50.36,-52.07 76.82,-76.82c15.89,-32.99 57.44,-40.33 69.84,-76.83c20.79,-4.82 25.52,-25.69 41.9,-34.92c14.61,-8.66 26.25,-20.3 34.92,-34.91c31.49,-17.41 44.32,-53.47 76.83,-69.85c71.48,-77.5 146.2,-151.76 223.48,-223.48c16.63,-8.99 33.32,-17.89 48.89,-27.93c27.7,4.4 20.01,-26.57 48.89,-20.96c90.92,9.18 128.2,72 188.56,111.75c45.73,54.36 95.72,104.48 146.67,153.64c92.94,104.93 194.03,201.72 286.33,307.3c96.45,101.42 193.29,202.48 286.35,307.29c50.81,49.3 94.42,105.79 146.66,153.64c19.11,29.78 50.74,47.05 69.85,76.83c11.61,13.98 25.34,25.87 27.93,48.89c14.37,16.37 35.43,-13.79 34.92,20.94c-7,21.24 -11.52,8.92 -20.96,0c-7.01,9.29 -6.6,25.99 -20.95,27.94c-10.86,21.73 -31.51,33.68 -62.85,34.92c-167.89,20.68 -383.81,-6.67 -551.73,13.97c-16.25,242.16 -2.37,514.45 -6.99,768.23c321.26,0 642.52,0 963.79,0c0,-582.27 0,-1219.29 0,-1822.8c0,-195.43 21.97,-400.3 -69.84,-537.76c-36.86,-79.56 -105.73,-127.08 -167.62,-181.59c-66.52,-31.26 -137.06,-58.49 -223.49,-69.84c-691.4,0 -1382.81,0 -2074.23,0c-57.42,7.75 -107.84,22.52 -160.63,34.92c-140.73,71.12 -243.02,180.67 -293.32,342.21c-16.18,724.12 -2.41,1478.17 -6.98,2213.91c-0.6,9.91 -1.16,19.78 6.98,20.95z" id="path20"/>
    <path fill="none" stroke="#000000" stroke-width="5" stroke-miterlimit="4" d="m-1914.999619,4075.000992l-270,0" id="path22"/>
    <path fill="none" stroke="#000000" stroke-width="5" stroke-miterlimit="4" d="m-1824.999619,3985.000992l0,-270" id="path24"/>
    <path fill="none" stroke="#000000" stroke-width="5" stroke-miterlimit="4" d="m-1914.999619,15255.000992l-270,0" id="path26"/>
    <path fill="none" stroke="#000000" stroke-width="5" stroke-miterlimit="4" d="m-1824.999619,15345.000992l0,270" id="path28"/>
    <path fill="none" stroke="#000000" stroke-width="5" stroke-miterlimit="4" d="m6205.000381,15255.000992l270,0" id="path30"/>
    <path fill="none" stroke="#000000" stroke-width="5" stroke-miterlimit="4" d="m6115.000381,15345.000992l0,270" id="path32"/>
    <path fill="none" stroke="#000000" stroke-width="5" stroke-miterlimit="4" d="m6205.000381,4075.000992l270,0" id="path34"/>
    <path fill="none" stroke="#000000" stroke-width="5" stroke-miterlimit="4" d="m6115.000381,3985.000992l0,-270" id="path36"/>
   </g>
  </g>
 </g>
</svg>