<svg id="Ebene_1" data-name="Ebene 1" xmlns="http://www.w3.org/2000/svg" viewBox="0 0 193 193"><defs><style>.cls-1,.cls-3{fill:#fff;}.cls-2{fill:#1d1d1b;}.cls-3{stroke:#1d1d1b;stroke-miterlimit:10;stroke-width:3px;}.cls-4{opacity:0.5;}</style></defs><title>bin-white-labelled-faded</title><rect class="cls-1" x="1.5" y="1.5" width="190" height="190" rx="18.5"/><path class="cls-2" d="M178.54,7.76a17,17,0,0,1,17,17v153a17,17,0,0,1-17,17h-153a17,17,0,0,1-17-17v-153a17,17,0,0,1,17-17h153m0-3h-153a20,20,0,0,0-20,20v153a20,20,0,0,0,20,20h153a20,20,0,0,0,20-20v-153a20,20,0,0,0-20-20Z" transform="translate(-5.54 -4.76)"/><path class="cls-3" d="M127.54,53.76a26,26,0,1,1-26-26A26,26,0,0,1,127.54,53.76Z" transform="translate(-5.54 -4.76)"/><path d="M75.44,124.26l3-14.45H81.7L77.27,129H74.08l-3.65-14L66.7,129H63.49l-4.43-19.19h3.31l3,14.42L69,109.81h2.79Z" transform="translate(-5.54 -4.76)"/><path d="M100.73,129H97.41v-8.53H88.83V129H85.49V109.81h3.34v8h8.58v-8h3.32Z" transform="translate(-5.54 -4.76)"/><path d="M109.54,129h-3.32V109.81h3.32Z" transform="translate(-5.54 -4.76)"/><path d="M128.48,112.5h-6V129h-3.31V112.5h-5.93v-2.69h15.23Z" transform="translate(-5.54 -4.76)"/><path d="M143.57,120.44h-7.89v5.9h9.22V129H132.35V109.81h12.46v2.69h-9.13v5.3h7.89Z" transform="translate(-5.54 -4.76)"/><path d="M74.11,158.91a6,6,0,0,1-.84.88,6.19,6.19,0,0,1-1.39.9,10.53,10.53,0,0,1-2,.7,12.83,12.83,0,0,1-2.81.28,8.67,8.67,0,0,1-3.31-.62,7.13,7.13,0,0,1-2.59-1.79,8.31,8.31,0,0,1-1.68-2.89,11.83,11.83,0,0,1-.6-3.92v-1.26a13.06,13.06,0,0,1,.54-3.91,8.25,8.25,0,0,1,1.55-2.91,6.64,6.64,0,0,1,2.48-1.8,8.33,8.33,0,0,1,3.32-.62,9.39,9.39,0,0,1,3.06.45,6.24,6.24,0,0,1,2.2,1.27,6.12,6.12,0,0,1,1.42,2,8.41,8.41,0,0,1,.68,2.47H70.83a6.05,6.05,0,0,0-.39-1.39,3.5,3.5,0,0,0-.76-1.09,3.3,3.3,0,0,0-1.19-.72,4.7,4.7,0,0,0-1.68-.27,4.51,4.51,0,0,0-2,.44,3.78,3.78,0,0,0-1.43,1.27,5.87,5.87,0,0,0-.86,2.06,12.18,12.18,0,0,0-.28,2.77v1.29a10.27,10.27,0,0,0,.34,2.8,5.84,5.84,0,0,0,1,2.05,4.24,4.24,0,0,0,1.56,1.27,4.76,4.76,0,0,0,2.07.44,7.79,7.79,0,0,0,1.47-.12,5.32,5.32,0,0,0,1-.28,2.78,2.78,0,0,0,.69-.38,2.94,2.94,0,0,0,.44-.38v-3.76h-4v-2.53h7.27Z" transform="translate(-5.54 -4.76)"/><path d="M82.46,158.74h8.72v2.66H79.13V142.21h3.33Z" transform="translate(-5.54 -4.76)"/><path d="M106.08,156.94H98.65l-1.56,4.46H93.62l7.25-19.19h3l7.26,19.19h-3.48Zm-6.5-2.69h5.57l-2.79-8Z" transform="translate(-5.54 -4.76)"/><path d="M124.69,156.46a3,3,0,0,0-.17-1,2.07,2.07,0,0,0-.63-.84,4.91,4.91,0,0,0-1.25-.73,17.15,17.15,0,0,0-2-.73,20.6,20.6,0,0,1-2.53-.94,8.48,8.48,0,0,1-2-1.23,5,5,0,0,1-1.31-1.61,4.37,4.37,0,0,1-.48-2.08,4.64,4.64,0,0,1,.5-2.13,5,5,0,0,1,1.39-1.69,6.44,6.44,0,0,1,2.15-1.11,9.27,9.27,0,0,1,2.77-.39,8.54,8.54,0,0,1,2.91.46,6.58,6.58,0,0,1,2.18,1.28,5.42,5.42,0,0,1,1.37,1.86,5.58,5.58,0,0,1,.47,2.26h-3.32a3.55,3.55,0,0,0-.22-1.28,2.76,2.76,0,0,0-.66-1,3,3,0,0,0-1.14-.66,5.76,5.76,0,0,0-3.15,0,2.92,2.92,0,0,0-1.07.55,2.25,2.25,0,0,0-.64.84,2.86,2.86,0,0,0-.2,1.06,2.11,2.11,0,0,0,1,1.78,11,11,0,0,0,3.08,1.32,16.84,16.84,0,0,1,2.8,1,8.62,8.62,0,0,1,2,1.31,4.73,4.73,0,0,1,1.16,1.65,5.22,5.22,0,0,1,.38,2.06,4.89,4.89,0,0,1-.48,2.19,4.58,4.58,0,0,1-1.37,1.64,6.44,6.44,0,0,1-2.15,1.05,10.38,10.38,0,0,1-2.83.36,10,10,0,0,1-2.72-.38,7.91,7.91,0,0,1-2.42-1.13,6.09,6.09,0,0,1-1.72-1.89,5.33,5.33,0,0,1-.65-2.67H117a3.47,3.47,0,0,0,.32,1.57,2.85,2.85,0,0,0,.88,1.06,3.78,3.78,0,0,0,1.33.61,6.64,6.64,0,0,0,1.64.19,4.12,4.12,0,0,0,2.62-.7A2.28,2.28,0,0,0,124.69,156.46Z" transform="translate(-5.54 -4.76)"/><path d="M142.33,156.46a2.75,2.75,0,0,0-.17-1,2,2,0,0,0-.62-.84,5.17,5.17,0,0,0-1.26-.73,16.54,16.54,0,0,0-2.05-.73,21.9,21.9,0,0,1-2.53-.94,8.41,8.41,0,0,1-2-1.23,5.2,5.2,0,0,1-1.32-1.61,4.49,4.49,0,0,1-.47-2.08,4.63,4.63,0,0,1,.49-2.13,5.12,5.12,0,0,1,1.39-1.69,6.53,6.53,0,0,1,2.15-1.11,9.32,9.32,0,0,1,2.77-.39,8.54,8.54,0,0,1,2.91.46,6.63,6.63,0,0,1,2.19,1.28,5.52,5.52,0,0,1,1.36,1.86,5.43,5.43,0,0,1,.48,2.26h-3.33a3.78,3.78,0,0,0-.21-1.28,2.79,2.79,0,0,0-.67-1,3.07,3.07,0,0,0-1.13-.66,5.76,5.76,0,0,0-3.15,0,3,3,0,0,0-1.08.55,2.22,2.22,0,0,0-.63.84,2.67,2.67,0,0,0-.21,1.06,2.13,2.13,0,0,0,1,1.78,11,11,0,0,0,3.08,1.32,17,17,0,0,1,2.81,1,8.33,8.33,0,0,1,2,1.31,4.9,4.9,0,0,1,1.17,1.65,5.4,5.4,0,0,1,.38,2.06,4.89,4.89,0,0,1-.48,2.19,4.69,4.69,0,0,1-1.37,1.64,6.59,6.59,0,0,1-2.16,1.05,10.58,10.58,0,0,1-5.55,0,7.75,7.75,0,0,1-2.41-1.13,6,6,0,0,1-1.72-1.89,5.23,5.23,0,0,1-.65-2.67h3.33a3.6,3.6,0,0,0,.32,1.57,2.87,2.87,0,0,0,.89,1.06,3.65,3.65,0,0,0,1.32.61,6.67,6.67,0,0,0,1.65.19,4.14,4.14,0,0,0,2.62-.7A2.3,2.3,0,0,0,142.33,156.46Z" transform="translate(-5.54 -4.76)"/><g class="cls-4"><rect class="cls-1" width="193" height="193" rx="20"/></g></svg>