<svg id="Ebene_1" data-name="Ebene 1" xmlns="http://www.w3.org/2000/svg" viewBox="0 0 193 193"><defs><style>.cls-1{fill:#575756;}.cls-2{opacity:0.5;}.cls-3{fill:#fff;}</style></defs><title>bin-darkgray-labelled-faded</title><rect class="cls-1" width="193" height="193" rx="20"/><g class="cls-2"><rect class="cls-3" width="193" height="193" rx="20"/></g><path class="cls-3" d="M127.54,53.76a26,26,0,1,1-26-26A26,26,0,0,1,127.54,53.76Z" transform="translate(-5.54 -4.76)"/><path class="cls-3" d="M44.4,122H41.25v7h-4V109.81h7.13a10.51,10.51,0,0,1,3,.38,6.13,6.13,0,0,1,2.23,1.1,4.84,4.84,0,0,1,1.4,1.82,6.09,6.09,0,0,1,.49,2.5,6.88,6.88,0,0,1-.24,1.89,5,5,0,0,1-.69,1.49,4.5,4.5,0,0,1-1.08,1.14,6.85,6.85,0,0,1-1.42.85l4.15,7.84V129H48Zm-3.15-3.21h3.19a4,4,0,0,0,1.36-.2,2.71,2.71,0,0,0,1-.58,2.37,2.37,0,0,0,.58-.9,3,3,0,0,0,.2-1.16,2.92,2.92,0,0,0-.77-2.14,3.19,3.19,0,0,0-2.37-.78H41.25Z" transform="translate(-5.54 -4.76)"/><path class="cls-3" d="M67.42,120.69H59.83v5.14h8.91V129H55.87V109.81H68.71V113H59.83v4.58h7.59Z" transform="translate(-5.54 -4.76)"/><path class="cls-3" d="M82.36,124a2.5,2.5,0,0,0-.14-.9,1.76,1.76,0,0,0-.56-.75,5.13,5.13,0,0,0-1.15-.67,19.4,19.4,0,0,0-1.89-.7,22.46,22.46,0,0,1-2.48-1,9.19,9.19,0,0,1-2-1.25,5.55,5.55,0,0,1-1.38-1.65,4.49,4.49,0,0,1-.51-2.19,4.6,4.6,0,0,1,.52-2.19,5.06,5.06,0,0,1,1.46-1.7,7.36,7.36,0,0,1,2.25-1.09,10.18,10.18,0,0,1,2.85-.38,8.87,8.87,0,0,1,2.9.44,6.59,6.59,0,0,1,2.23,1.23,5.44,5.44,0,0,1,1.42,1.88,5.52,5.52,0,0,1,.5,2.38h-4a3.33,3.33,0,0,0-.19-1.12,2.43,2.43,0,0,0-.59-.89,2.8,2.8,0,0,0-1-.57,4.45,4.45,0,0,0-1.4-.2,4.52,4.52,0,0,0-1.35.17,2.73,2.73,0,0,0-1,.47,1.9,1.9,0,0,0-.56.71,2,2,0,0,0-.2.87,1.87,1.87,0,0,0,1,1.59,11,11,0,0,0,2.84,1.2,17.8,17.8,0,0,1,2.77,1.08,8.14,8.14,0,0,1,2,1.34,5,5,0,0,1,1.61,3.81,5,5,0,0,1-.49,2.26,4.59,4.59,0,0,1-1.41,1.66,6.56,6.56,0,0,1-2.19,1,10.63,10.63,0,0,1-2.87.36,11.18,11.18,0,0,1-1.9-.17,9.87,9.87,0,0,1-1.81-.5,7.91,7.91,0,0,1-1.6-.86,6.18,6.18,0,0,1-1.29-1.21,5.52,5.52,0,0,1-.85-1.59,5.9,5.9,0,0,1-.31-2h4a3.57,3.57,0,0,0,.28,1.47,2.63,2.63,0,0,0,.77,1,3.15,3.15,0,0,0,1.2.54,6.19,6.19,0,0,0,1.55.17A4.75,4.75,0,0,0,80.7,126a2.66,2.66,0,0,0,.94-.46,1.74,1.74,0,0,0,.55-.69A2.06,2.06,0,0,0,82.36,124Z" transform="translate(-5.54 -4.76)"/><path class="cls-3" d="M94.29,129h-4V109.81h4Z" transform="translate(-5.54 -4.76)"/><path class="cls-3" d="M99,129V109.81H105a9.13,9.13,0,0,1,3.55.67,7.93,7.93,0,0,1,2.77,1.87,8.52,8.52,0,0,1,1.8,2.89,10.43,10.43,0,0,1,.64,3.75v.87a10.32,10.32,0,0,1-.64,3.73,8.37,8.37,0,0,1-1.8,2.89,8.15,8.15,0,0,1-2.79,1.87,9.37,9.37,0,0,1-3.57.65ZM103,113v12.82h1.92a4.3,4.3,0,0,0,3.57-1.55,7,7,0,0,0,1.22-4.42V119a7,7,0,0,0-1.21-4.44A4.3,4.3,0,0,0,105,113Z" transform="translate(-5.54 -4.76)"/><path class="cls-3" d="M131.79,109.81v12.67a7.26,7.26,0,0,1-.55,2.93,5.94,5.94,0,0,1-1.53,2.13,6.52,6.52,0,0,1-2.33,1.29,10.14,10.14,0,0,1-5.91,0,6.48,6.48,0,0,1-2.32-1.29,5.94,5.94,0,0,1-1.53-2.13,7.43,7.43,0,0,1-.54-2.93V109.81h4v12.67a3.63,3.63,0,0,0,.91,2.75,4,4,0,0,0,5,0,3.67,3.67,0,0,0,.89-2.75V109.81Z" transform="translate(-5.54 -4.76)"/><path class="cls-3" d="M146.93,125.05H140l-1.32,4h-4.21l7.15-19.19h3.66L152.47,129h-4.21Zm-5.87-3.2h4.8l-2.41-7.19Z" transform="translate(-5.54 -4.76)"/><path class="cls-3" d="M159.56,125.83H168V129H155.61V109.81h3.95Z" transform="translate(-5.54 -4.76)"/><path class="cls-3" d="M71.16,155.87l2.58-13.66h4L73.43,161.4h-4l-3.13-12.84L63.2,161.4h-4L55,142.21H58.9l2.6,13.63,3.16-13.63H68Z" transform="translate(-5.54 -4.76)"/><path class="cls-3" d="M91.44,157.45H84.51l-1.32,4H79l7.15-19.19h3.66L97,161.4H92.77Zm-5.86-3.2h4.79L88,147.06Z" transform="translate(-5.54 -4.76)"/><path class="cls-3" d="M110.08,156.37a2.5,2.5,0,0,0-.15-.9,1.76,1.76,0,0,0-.56-.75,5.13,5.13,0,0,0-1.15-.67,17.61,17.61,0,0,0-1.89-.7,22.46,22.46,0,0,1-2.48-.95,9.19,9.19,0,0,1-2-1.25,5.55,5.55,0,0,1-1.38-1.65,4.49,4.49,0,0,1-.51-2.19,4.6,4.6,0,0,1,.52-2.19,5,5,0,0,1,1.47-1.7,7.19,7.19,0,0,1,2.24-1.09A10.18,10.18,0,0,1,107,142a8.87,8.87,0,0,1,2.9.44,6.59,6.59,0,0,1,2.23,1.23,5.44,5.44,0,0,1,1.42,1.88,5.52,5.52,0,0,1,.5,2.38h-4a3.1,3.1,0,0,0-.19-1.12,2.24,2.24,0,0,0-.59-.89,2.8,2.8,0,0,0-1-.57,4.16,4.16,0,0,0-1.39-.2,4.64,4.64,0,0,0-1.36.17,2.82,2.82,0,0,0-.95.47,2,2,0,0,0-.56.71,2,2,0,0,0-.19.87,1.85,1.85,0,0,0,1,1.59,10.7,10.7,0,0,0,2.84,1.2,18.07,18.07,0,0,1,2.76,1.08,8.14,8.14,0,0,1,2,1.34,4.91,4.91,0,0,1,1.61,3.81,5,5,0,0,1-.49,2.26,4.66,4.66,0,0,1-1.4,1.66,6.71,6.71,0,0,1-2.2,1.05,10.63,10.63,0,0,1-2.87.36,11,11,0,0,1-1.89-.17,9.76,9.76,0,0,1-1.82-.5,8.19,8.19,0,0,1-1.6-.86,6.18,6.18,0,0,1-1.29-1.21,5.52,5.52,0,0,1-.85-1.59,5.9,5.9,0,0,1-.31-2h4a3.57,3.57,0,0,0,.27,1.47,2.73,2.73,0,0,0,.77,1,3.15,3.15,0,0,0,1.2.54,6.19,6.19,0,0,0,1.55.17,4.87,4.87,0,0,0,1.34-.16,2.7,2.7,0,0,0,.93-.46,1.74,1.74,0,0,0,.55-.69A2.07,2.07,0,0,0,110.08,156.37Z" transform="translate(-5.54 -4.76)"/><path class="cls-3" d="M132.52,145.41h-5.88v16h-4v-16h-5.8v-3.2h15.64Z" transform="translate(-5.54 -4.76)"/><path class="cls-3" d="M147.67,153.09h-7.59v5.14H149v3.17H136.12V142.21H149v3.2h-8.88V150h7.59Z" transform="translate(-5.54 -4.76)"/></svg>