<svg id="Ebene_1" data-name="Ebene 1" xmlns="http://www.w3.org/2000/svg" viewBox="0 0 193 193"><defs><style>.cls-1{fill:#886027;}.cls-2,.cls-3{fill:#fff;}.cls-2{opacity:0.5;}</style></defs><title>bin-brown-labelled-faded</title><path class="cls-1" d="M5.54,24.76a20,20,0,0,1,20-20h153a20,20,0,0,1,20,20v153a20,20,0,0,1-20,20h-153a20,20,0,0,1-20-20Z" transform="translate(-5.54 -4.76)"/><path class="cls-2" d="M5.54,24.76a20,20,0,0,1,20-20h153a20,20,0,0,1,20,20v153a20,20,0,0,1-20,20h-153a20,20,0,0,1-20-20Z" transform="translate(-5.54 -4.76)"/><path class="cls-3" d="M127.54,53.76a26,26,0,1,1-26-26A26,26,0,0,1,127.54,53.76Z" transform="translate(-5.54 -4.76)"/><path class="cls-3" d="M80.54,129V109.81h6.72a12.43,12.43,0,0,1,3,.32,6.49,6.49,0,0,1,2.23,1,4.36,4.36,0,0,1,1.4,1.65,5.27,5.27,0,0,1,.48,2.33,4.86,4.86,0,0,1-.17,1.27,3.94,3.94,0,0,1-.5,1.13,3.8,3.8,0,0,1-.85,1,4.17,4.17,0,0,1-1.22.71,4.13,4.13,0,0,1,1.44.64,4.08,4.08,0,0,1,1,1,3.84,3.84,0,0,1,.57,1.23,5.63,5.63,0,0,1,.17,1.36,5,5,0,0,1-1.8,4.22A8,8,0,0,1,87.88,129Zm3.95-11.15h2.93a3.62,3.62,0,0,0,2.26-.64,2.14,2.14,0,0,0,.73-1.74,2.22,2.22,0,0,0-.75-1.88,4,4,0,0,0-2.4-.58H84.49Zm0,2.8v5.18h3.39a4.28,4.28,0,0,0,1.32-.19,2.65,2.65,0,0,0,.92-.53,2.13,2.13,0,0,0,.55-.79,2.73,2.73,0,0,0,.18-1,3.5,3.5,0,0,0-.16-1.11,2.07,2.07,0,0,0-.49-.84,2.12,2.12,0,0,0-.88-.54,4.1,4.1,0,0,0-1.29-.18Z" transform="translate(-5.54 -4.76)"/><path class="cls-3" d="M103.33,129h-4V109.81h4Z" transform="translate(-5.54 -4.76)"/><path class="cls-3" d="M124.11,119.84a12.38,12.38,0,0,1-.59,4,8.69,8.69,0,0,1-1.67,3,7.38,7.38,0,0,1-2.58,1.87,8.75,8.75,0,0,1-6.62,0,7.51,7.51,0,0,1-2.59-1.87,8.56,8.56,0,0,1-1.69-3,11.83,11.83,0,0,1-.61-4V119a12.12,12.12,0,0,1,.6-3.94,8.64,8.64,0,0,1,1.68-3,7.12,7.12,0,0,1,2.59-1.88,8.73,8.73,0,0,1,6.61,0,7.12,7.12,0,0,1,2.59,1.88,8.64,8.64,0,0,1,1.68,3,12.12,12.12,0,0,1,.6,3.94Zm-4-.87a8.11,8.11,0,0,0-1.08-4.59,3.83,3.83,0,0,0-6.17,0,8.11,8.11,0,0,0-1.08,4.59v.87a11.2,11.2,0,0,0,.28,2.66,5.94,5.94,0,0,0,.82,1.94,3.51,3.51,0,0,0,1.31,1.18A3.8,3.8,0,0,0,116,126a3.47,3.47,0,0,0,3.07-1.59,8.15,8.15,0,0,0,1.07-4.6Z" transform="translate(-5.54 -4.76)"/><path class="cls-3" d="M71.16,155.87l2.58-13.66h4L73.43,161.4h-4l-3.13-12.84L63.2,161.4h-4L55,142.21H58.9l2.6,13.63,3.16-13.63H68Z" transform="translate(-5.54 -4.76)"/><path class="cls-3" d="M91.44,157.45H84.51l-1.32,4H79l7.15-19.19h3.66L97,161.4H92.77Zm-5.86-3.2h4.79L88,147.06Z" transform="translate(-5.54 -4.76)"/><path class="cls-3" d="M110.08,156.37a2.5,2.5,0,0,0-.15-.9,1.76,1.76,0,0,0-.56-.75,5.13,5.13,0,0,0-1.15-.67,17.61,17.61,0,0,0-1.89-.7,22.46,22.46,0,0,1-2.48-.95,9.19,9.19,0,0,1-2-1.25,5.55,5.55,0,0,1-1.38-1.65,4.49,4.49,0,0,1-.51-2.19,4.6,4.6,0,0,1,.52-2.19,5,5,0,0,1,1.47-1.7,7.19,7.19,0,0,1,2.24-1.09A10.18,10.18,0,0,1,107,142a8.87,8.87,0,0,1,2.9.44,6.59,6.59,0,0,1,2.23,1.23,5.44,5.44,0,0,1,1.42,1.88,5.52,5.52,0,0,1,.5,2.38h-4a3.1,3.1,0,0,0-.19-1.12,2.24,2.24,0,0,0-.59-.89,2.8,2.8,0,0,0-1-.57,4.16,4.16,0,0,0-1.39-.2,4.64,4.64,0,0,0-1.36.17,2.82,2.82,0,0,0-.95.47,2,2,0,0,0-.56.71,2,2,0,0,0-.19.87,1.85,1.85,0,0,0,1,1.59,10.7,10.7,0,0,0,2.84,1.2,18.07,18.07,0,0,1,2.76,1.08,8.14,8.14,0,0,1,2,1.34,4.91,4.91,0,0,1,1.61,3.81,5,5,0,0,1-.49,2.26,4.66,4.66,0,0,1-1.4,1.66,6.71,6.71,0,0,1-2.2,1.05,10.63,10.63,0,0,1-2.87.36,11,11,0,0,1-1.89-.17,9.76,9.76,0,0,1-1.82-.5,8.19,8.19,0,0,1-1.6-.86,6.18,6.18,0,0,1-1.29-1.21,5.52,5.52,0,0,1-.85-1.59,5.9,5.9,0,0,1-.31-2h4a3.57,3.57,0,0,0,.27,1.47,2.73,2.73,0,0,0,.77,1,3.15,3.15,0,0,0,1.2.54,6.19,6.19,0,0,0,1.55.17,4.87,4.87,0,0,0,1.34-.16,2.7,2.7,0,0,0,.93-.46,1.74,1.74,0,0,0,.55-.69A2.07,2.07,0,0,0,110.08,156.37Z" transform="translate(-5.54 -4.76)"/><path class="cls-3" d="M132.52,145.41h-5.88v16h-4v-16h-5.8v-3.2h15.64Z" transform="translate(-5.54 -4.76)"/><path class="cls-3" d="M147.67,153.09h-7.59v5.14H149v3.17H136.12V142.21H149v3.2h-8.88V150h7.59Z" transform="translate(-5.54 -4.76)"/></svg>