<svg id="Ebene_1" data-name="Ebene 1" xmlns="http://www.w3.org/2000/svg" viewBox="0 0 193 193"><defs><style>.cls-1{fill:#4c71b5;}.cls-2{fill:#fff;}</style></defs><title>bin-blue-labelled</title><path class="cls-1" d="M5.54,24.76a20,20,0,0,1,20-20h153a20,20,0,0,1,20,20v153a20,20,0,0,1-20,20h-153a20,20,0,0,1-20-20Z" transform="translate(-5.54 -4.76)"/><path class="cls-2" d="M127.54,53.76a26,26,0,1,1-26-26A26,26,0,0,1,127.54,53.76Z" transform="translate(-5.54 -4.76)"/><path class="cls-2" d="M63.48,122.24V129H59.53V109.81H67a9.2,9.2,0,0,1,3,.47,6.52,6.52,0,0,1,2.27,1.33,5.74,5.74,0,0,1,1.42,2,6.56,6.56,0,0,1,.49,2.53,6.33,6.33,0,0,1-.49,2.52,5.17,5.17,0,0,1-1.42,1.91,6.33,6.33,0,0,1-2.27,1.22,9.79,9.79,0,0,1-3,.43Zm0-3.2H67a4.5,4.5,0,0,0,1.46-.21,2.65,2.65,0,0,0,1-.59,2.37,2.37,0,0,0,.58-.9,3.55,3.55,0,0,0,.18-1.15,3.94,3.94,0,0,0-.18-1.19,3,3,0,0,0-.58-1,2.73,2.73,0,0,0-1-.7A3.59,3.59,0,0,0,67,113H63.48Z" transform="translate(-5.54 -4.76)"/><path class="cls-2" d="M86.78,125.05H79.85l-1.32,4H74.32l7.15-19.19h3.66L92.32,129H88.11Zm-5.86-3.2h4.79l-2.41-7.19Z" transform="translate(-5.54 -4.76)"/><path class="cls-2" d="M99.42,122.24V129h-4V109.81H103a9.24,9.24,0,0,1,3,.47,6.61,6.61,0,0,1,2.27,1.33,5.59,5.59,0,0,1,1.41,2,6.38,6.38,0,0,1,.49,2.53,6.16,6.16,0,0,1-.49,2.52,5,5,0,0,1-1.41,1.91,6.42,6.42,0,0,1-2.27,1.22,9.83,9.83,0,0,1-3,.43Zm0-3.2H103a4.55,4.55,0,0,0,1.46-.21,2.65,2.65,0,0,0,1-.59,2.23,2.23,0,0,0,.57-.9,3.3,3.3,0,0,0,.19-1.15A3.66,3.66,0,0,0,106,115a2.85,2.85,0,0,0-.57-1,2.73,2.73,0,0,0-1-.7A3.62,3.62,0,0,0,103,113H99.42Z" transform="translate(-5.54 -4.76)"/><path class="cls-2" d="M125.78,120.69h-7.6v5.14h8.91V129H114.23V109.81h12.84V113h-8.89v4.58h7.6Z" transform="translate(-5.54 -4.76)"/><path class="cls-2" d="M137.87,122h-3.15v7h-3.95V109.81h7.13a10.56,10.56,0,0,1,3,.38,6.08,6.08,0,0,1,2.22,1.1,4.74,4.74,0,0,1,1.4,1.82,5.93,5.93,0,0,1,.49,2.5,6.88,6.88,0,0,1-.24,1.89,5,5,0,0,1-.68,1.49,4.88,4.88,0,0,1-1.08,1.14,7.2,7.2,0,0,1-1.43.85l4.16,7.84V129h-4.25Zm-3.15-3.21h3.19a4,4,0,0,0,1.36-.2,2.63,2.63,0,0,0,1-.58,2.39,2.39,0,0,0,.59-.9,3.24,3.24,0,0,0,.2-1.16,2.89,2.89,0,0,0-.78-2.14,3.18,3.18,0,0,0-2.36-.78h-3.18Z" transform="translate(-5.54 -4.76)"/><path class="cls-2" d="M34,155a7.82,7.82,0,0,1-.66,2.69,6.19,6.19,0,0,1-1.53,2.1,7,7,0,0,1-2.36,1.37,9.46,9.46,0,0,1-3.17.5,8.36,8.36,0,0,1-3.32-.64,6.8,6.8,0,0,1-2.49-1.84,8.3,8.3,0,0,1-1.57-2.91,12.65,12.65,0,0,1-.55-3.83v-1.26a12.1,12.1,0,0,1,.57-3.84,8.51,8.51,0,0,1,1.6-2.91A7,7,0,0,1,23,142.59a8.2,8.2,0,0,1,3.3-.64,9.37,9.37,0,0,1,3.17.5,6.84,6.84,0,0,1,2.34,1.41A6.51,6.51,0,0,1,33.3,146a9.15,9.15,0,0,1,.69,2.71H30a6,6,0,0,0-.29-1.51,3.08,3.08,0,0,0-.67-1.11,2.68,2.68,0,0,0-1.12-.68,5.36,5.36,0,0,0-1.66-.23,3.35,3.35,0,0,0-3,1.46,8.22,8.22,0,0,0-1,4.51v1.29a13.32,13.32,0,0,0,.22,2.61,5.54,5.54,0,0,0,.68,1.88,3,3,0,0,0,1.22,1.12,3.93,3.93,0,0,0,1.8.38,5.47,5.47,0,0,0,1.61-.21,2.76,2.76,0,0,0,1.84-1.72A5.36,5.36,0,0,0,30,155Z" transform="translate(-5.54 -4.76)"/><path class="cls-2" d="M48.75,157.45H41.81l-1.32,4h-4.2l7.14-19.19H47.1l7.18,19.19h-4.2Zm-5.87-3.2h4.8l-2.41-7.19Z" transform="translate(-5.54 -4.76)"/><path class="cls-2" d="M64.53,154.38H61.38v7h-4V142.21h7.13a10.51,10.51,0,0,1,3,.38,6.21,6.21,0,0,1,2.23,1.1,4.82,4.82,0,0,1,1.39,1.82,5.93,5.93,0,0,1,.49,2.5,6.88,6.88,0,0,1-.24,1.89,4.73,4.73,0,0,1-.68,1.49,4.88,4.88,0,0,1-1.08,1.14,6.93,6.93,0,0,1-1.43.85l4.16,7.84v.18H68.13Zm-3.15-3.21h3.19a4.12,4.12,0,0,0,1.37-.2,2.67,2.67,0,0,0,1-.58,2.39,2.39,0,0,0,.59-.9,3.24,3.24,0,0,0,.2-1.16,2.92,2.92,0,0,0-.77-2.14,3.22,3.22,0,0,0-2.37-.78H61.38Z" transform="translate(-5.54 -4.76)"/><path class="cls-2" d="M76,161.4V142.21h5.9a9.14,9.14,0,0,1,3.56.67,7.8,7.8,0,0,1,2.76,1.87,8.52,8.52,0,0,1,1.8,2.89,10.43,10.43,0,0,1,.65,3.75v.87A10.32,10.32,0,0,1,90,156a8.39,8.39,0,0,1-1.81,2.89,8,8,0,0,1-2.78,1.87,9.62,9.62,0,0,1-3.58.65Zm3.95-16v12.82h1.91a4.3,4.3,0,0,0,3.58-1.55,7,7,0,0,0,1.22-4.42v-.9a7,7,0,0,0-1.21-4.44,4.3,4.3,0,0,0-3.55-1.51Z" transform="translate(-5.54 -4.76)"/><path class="cls-2" d="M94.82,161.4V142.21h6.73a12.41,12.41,0,0,1,3,.32,6.4,6.4,0,0,1,2.23,1,4.36,4.36,0,0,1,1.4,1.65,5.27,5.27,0,0,1,.48,2.33,4.86,4.86,0,0,1-.16,1.27,4.18,4.18,0,0,1-2.58,2.79,4.13,4.13,0,0,1,1.44.64,4.23,4.23,0,0,1,1,1,4,4,0,0,1,.57,1.24,5.18,5.18,0,0,1,.18,1.36,5,5,0,0,1-1.8,4.22,8.08,8.08,0,0,1-5.12,1.42Zm4-11.15h2.93a3.57,3.57,0,0,0,2.25-.64,2.15,2.15,0,0,0,.74-1.74,2.22,2.22,0,0,0-.76-1.88,3.93,3.93,0,0,0-2.39-.58H98.78Zm0,2.8v5.18h3.39a4.17,4.17,0,0,0,1.31-.19,2.8,2.8,0,0,0,.93-.53,2.26,2.26,0,0,0,.55-.79,3,3,0,0,0,.17-1,3.5,3.5,0,0,0-.16-1.11,2.06,2.06,0,0,0-1.37-1.38,4.1,4.1,0,0,0-1.29-.18Z" transform="translate(-5.54 -4.76)"/><path class="cls-2" d="M129,152.24a12.1,12.1,0,0,1-.6,3.95,8.51,8.51,0,0,1-1.66,3A7.38,7.38,0,0,1,124.2,161a8.75,8.75,0,0,1-6.62,0,7.42,7.42,0,0,1-2.59-1.87,8.41,8.41,0,0,1-1.69-3,11.83,11.83,0,0,1-.61-3.95v-.84a12.12,12.12,0,0,1,.6-3.94,8.64,8.64,0,0,1,1.68-3,7.17,7.17,0,0,1,2.58-1.88,8.75,8.75,0,0,1,6.62,0,7.2,7.2,0,0,1,2.59,1.88,8.64,8.64,0,0,1,1.68,3,12.12,12.12,0,0,1,.6,3.94Zm-4-.87a8.11,8.11,0,0,0-1.08-4.59,3.83,3.83,0,0,0-6.17,0,8.11,8.11,0,0,0-1.08,4.59v.87a11.2,11.2,0,0,0,.28,2.66,5.94,5.94,0,0,0,.82,1.94,3.43,3.43,0,0,0,1.31,1.18,3.8,3.8,0,0,0,1.78.41,3.47,3.47,0,0,0,3.07-1.59,8.23,8.23,0,0,0,1.07-4.6Z" transform="translate(-5.54 -4.76)"/><path class="cls-2" d="M143.82,157.45h-6.93l-1.32,4h-4.21l7.15-19.19h3.66l7.19,19.19h-4.21Zm-5.87-3.2h4.8l-2.41-7.19Z" transform="translate(-5.54 -4.76)"/><path class="cls-2" d="M159.61,154.38h-3.15v7h-4V142.21h7.13a10.51,10.51,0,0,1,3,.38,6.21,6.21,0,0,1,2.23,1.1,4.84,4.84,0,0,1,1.4,1.82,6.09,6.09,0,0,1,.49,2.5,6.88,6.88,0,0,1-.24,1.89,5,5,0,0,1-.69,1.49,4.88,4.88,0,0,1-1.08,1.14,6.85,6.85,0,0,1-1.42.85l4.15,7.84v.18h-4.24Zm-3.15-3.21h3.19A4,4,0,0,0,161,151a2.71,2.71,0,0,0,1-.58,2.37,2.37,0,0,0,.58-.9,3,3,0,0,0,.2-1.16,2.92,2.92,0,0,0-.77-2.14,3.19,3.19,0,0,0-2.37-.78h-3.17Z" transform="translate(-5.54 -4.76)"/><path class="cls-2" d="M171.08,161.4V142.21H177a9.13,9.13,0,0,1,3.55.67,7.84,7.84,0,0,1,2.77,1.87,8.52,8.52,0,0,1,1.8,2.89,10.43,10.43,0,0,1,.65,3.75v.87a10.54,10.54,0,0,1-.64,3.73,8.39,8.39,0,0,1-1.81,2.89,8.15,8.15,0,0,1-2.79,1.87,9.57,9.57,0,0,1-3.57.65Zm4-16v12.82H177a4.3,4.3,0,0,0,3.57-1.55,7,7,0,0,0,1.23-4.42v-.9a7,7,0,0,0-1.22-4.44,4.28,4.28,0,0,0-3.54-1.51Z" transform="translate(-5.54 -4.76)"/></svg>