<svg id="Ebene_1" data-name="Ebene 1" xmlns="http://www.w3.org/2000/svg" viewBox="0 0 193 193"><defs><style>.cls-1,.cls-3{fill:#fff;}.cls-2{fill:#1d1d1b;}.cls-3{stroke:#1d1d1b;stroke-miterlimit:10;stroke-width:3px;}.cls-4{opacity:0.5;}</style></defs><title>bin-white-no-label-faded</title><rect class="cls-1" x="1.5" y="1.5" width="190" height="190" rx="18.5"/><path class="cls-2" d="M178.54,7.76a17,17,0,0,1,17,17v153a17,17,0,0,1-17,17h-153a17,17,0,0,1-17-17v-153a17,17,0,0,1,17-17h153m0-3h-153a20,20,0,0,0-20,20v153a20,20,0,0,0,20,20h153a20,20,0,0,0,20-20v-153a20,20,0,0,0-20-20Z" transform="translate(-5.54 -4.76)"/><path class="cls-3" d="M127.54,53.76a26,26,0,1,1-26-26A26,26,0,0,1,127.54,53.76Z" transform="translate(-5.54 -4.76)"/><g class="cls-4"><rect class="cls-1" width="193" height="193" rx="20"/></g></svg>