<svg id="Ebene_1" data-name="Ebene 1" xmlns="http://www.w3.org/2000/svg" viewBox="0 0 193 193"><defs><style>.cls-1,.cls-3{fill:#fff;}.cls-2{fill:#e84e1b;}.cls-3{stroke:#e84e1b;stroke-miterlimit:10;stroke-width:8px;}</style></defs><title>bin-red-outline-no-hole-no-label</title><rect class="cls-1" x="1.5" y="1.5" width="190" height="190" rx="18.5"/><path class="cls-2" d="M178.54,7.76a17,17,0,0,1,17,17v153a17,17,0,0,1-17,17h-153a17,17,0,0,1-17-17v-153a17,17,0,0,1,17-17h153m0-3h-153a20,20,0,0,0-20,20v153a20,20,0,0,0,20,20h153a20,20,0,0,0,20-20v-153a20,20,0,0,0-20-20Z" transform="translate(-5.54 -4.76)"/><line class="cls-3" x1="7.11" y1="7.89" x2="185.09" y2="185.87"/></svg>