<svg id="Ebene_1" data-name="Ebene 1" xmlns="http://www.w3.org/2000/svg" viewBox="0 0 193 193"><defs><style>.cls-1{fill:#e84e1b;}.cls-2,.cls-3{fill:#fff;}.cls-3{stroke:#fff;stroke-miterlimit:10;stroke-width:8px;}</style></defs><title>bin-red-labelled-no-hole</title><rect class="cls-1" width="193" height="193" rx="20"/><path class="cls-2" d="M72.35,179V159.81h6.73a12.41,12.41,0,0,1,3,.32,6.54,6.54,0,0,1,2.24,1,4.34,4.34,0,0,1,1.39,1.65,5.27,5.27,0,0,1,.48,2.33,4.86,4.86,0,0,1-.16,1.27,4,4,0,0,1-1.35,2.08,4.09,4.09,0,0,1-1.23.71,4.18,4.18,0,0,1,1.45.64,4,4,0,0,1,1,1,3.84,3.84,0,0,1,.57,1.23,5.18,5.18,0,0,1,.18,1.36,5,5,0,0,1-1.8,4.22A8.08,8.08,0,0,1,79.7,179Zm4-11.15h2.93a3.57,3.57,0,0,0,2.25-.64,2.15,2.15,0,0,0,.74-1.74,2.19,2.19,0,0,0-.76-1.88,3.91,3.91,0,0,0-2.39-.58H76.31Zm0,2.8v5.18H79.7a4.28,4.28,0,0,0,1.32-.19,2.75,2.75,0,0,0,.92-.53,2.13,2.13,0,0,0,.55-.79,3,3,0,0,0,.17-1,3.82,3.82,0,0,0-.15-1.11,2.09,2.09,0,0,0-.5-.84,2,2,0,0,0-.88-.54,4.1,4.1,0,0,0-1.29-.18Z" transform="translate(-5.54 -4.76)"/><path class="cls-2" d="M95.14,179h-4V159.81h4Z" transform="translate(-5.54 -4.76)"/><path class="cls-2" d="M115.77,179h-4l-7.7-12.63V179h-4V159.81h4l7.71,12.66V159.81h4Z" transform="translate(-5.54 -4.76)"/><path class="cls-2" d="M130.52,174a2.74,2.74,0,0,0-.14-.9,1.85,1.85,0,0,0-.56-.75,5.13,5.13,0,0,0-1.15-.67,19.4,19.4,0,0,0-1.89-.7,23.44,23.44,0,0,1-2.49-.95,9.11,9.11,0,0,1-2-1.25,5.41,5.41,0,0,1-1.38-1.65,4.49,4.49,0,0,1-.51-2.19,4.6,4.6,0,0,1,.52-2.19,5,5,0,0,1,1.46-1.7,7.42,7.42,0,0,1,2.24-1.09,10.31,10.31,0,0,1,2.86-.38,8.87,8.87,0,0,1,2.9.44,6.59,6.59,0,0,1,2.23,1.23A5.44,5.44,0,0,1,134,163.1a5.67,5.67,0,0,1,.5,2.38h-4a3.1,3.1,0,0,0-.2-1.12,2.29,2.29,0,0,0-.58-.89,2.89,2.89,0,0,0-1-.57,5.21,5.21,0,0,0-2.75,0,2.73,2.73,0,0,0-1,.47,2,2,0,0,0-.57.71,2.2,2.2,0,0,0-.19.87,1.87,1.87,0,0,0,1,1.59,11,11,0,0,0,2.84,1.2,17.8,17.8,0,0,1,2.77,1.08,8.34,8.34,0,0,1,2,1.34,5.14,5.14,0,0,1,1.2,1.69,5.27,5.27,0,0,1,.41,2.12,5,5,0,0,1-.49,2.26,4.59,4.59,0,0,1-1.41,1.66,6.65,6.65,0,0,1-2.19,1,10.68,10.68,0,0,1-2.87.36,11.09,11.09,0,0,1-1.9-.17,9.66,9.66,0,0,1-1.81-.5,7.91,7.91,0,0,1-1.6-.86,6.18,6.18,0,0,1-1.29-1.21,5.52,5.52,0,0,1-.85-1.59,5.9,5.9,0,0,1-.31-2h4a3.57,3.57,0,0,0,.28,1.47,2.53,2.53,0,0,0,.77,1A3.17,3.17,0,0,0,126,176a6.32,6.32,0,0,0,1.56.17,4.8,4.8,0,0,0,1.33-.16,2.66,2.66,0,0,0,.94-.46,1.72,1.72,0,0,0,.54-.69A2.07,2.07,0,0,0,130.52,174Z" transform="translate(-5.54 -4.76)"/><path class="cls-2" d="M42.69,102.62a12.46,12.46,0,0,1-.59,3.95,8.62,8.62,0,0,1-1.67,3,7.27,7.27,0,0,1-2.58,1.86,8.73,8.73,0,0,1-6.61,0,7.3,7.3,0,0,1-2.59-1.86,8.67,8.67,0,0,1-1.7-3,12.17,12.17,0,0,1-.61-3.95v-.85a12.12,12.12,0,0,1,.6-3.94,8.59,8.59,0,0,1,1.69-3A7.29,7.29,0,0,1,31.21,93a8.75,8.75,0,0,1,6.62,0,7.29,7.29,0,0,1,2.58,1.88,8.73,8.73,0,0,1,1.68,3,12.12,12.12,0,0,1,.6,3.94Zm-4-.87a8.06,8.06,0,0,0-1.08-4.59,3.82,3.82,0,0,0-6.17,0,8.06,8.06,0,0,0-1.08,4.59v.87a11.08,11.08,0,0,0,.29,2.65,5.85,5.85,0,0,0,.81,1.94,3.65,3.65,0,0,0,1.32,1.19,3.75,3.75,0,0,0,1.77.4,3.51,3.51,0,0,0,3.08-1.58,8.26,8.26,0,0,0,1.06-4.6Z" transform="translate(-5.54 -4.76)"/><path class="cls-2" d="M58.47,103.94h-7.6v7.84H46.92V92.58H59.41v3.21H50.87v5h7.6Z" transform="translate(-5.54 -4.76)"/><path class="cls-2" d="M149.38,95.79H143.5v16h-4v-16h-5.8V92.58h15.64Z" transform="translate(-5.54 -4.76)"/><path class="cls-2" d="M168.61,111.78h-4v-8.23h-7.71v8.23h-4V92.58h4v7.78h7.71V92.58h4Z" transform="translate(-5.54 -4.76)"/><path class="cls-2" d="M185,103.46h-7.59v5.14h8.91v3.18H173.41V92.58h12.84v3.21h-8.88v4.57H185Z" transform="translate(-5.54 -4.76)"/><path class="cls-2" d="M81.37,41.1h-4l-7.7-12.63V41.1H65.76V21.91h3.95l7.72,12.65V21.91h3.94Z" transform="translate(-5.54 -4.76)"/><path class="cls-2" d="M101.94,31.94a12.42,12.42,0,0,1-.59,3.95,8.78,8.78,0,0,1-1.67,3,7.23,7.23,0,0,1-2.58,1.86,8.63,8.63,0,0,1-6.62,0,7.36,7.36,0,0,1-2.59-1.86,8.65,8.65,0,0,1-1.69-3,11.87,11.87,0,0,1-.61-3.95V31.1a12.08,12.08,0,0,1,.6-3.94,8.64,8.64,0,0,1,1.68-3,7.12,7.12,0,0,1,2.59-1.88,8.61,8.61,0,0,1,6.61,0,7.12,7.12,0,0,1,2.59,1.88,8.64,8.64,0,0,1,1.68,3,12.08,12.08,0,0,1,.6,3.94Zm-4-.87a8.11,8.11,0,0,0-1.08-4.59,3.82,3.82,0,0,0-6.17,0,8.11,8.11,0,0,0-1.08,4.59v.87a11.2,11.2,0,0,0,.28,2.66,5.94,5.94,0,0,0,.82,1.94A3.59,3.59,0,0,0,92,37.72a3.8,3.8,0,0,0,1.78.4,3.46,3.46,0,0,0,3.07-1.58,8.15,8.15,0,0,0,1.07-4.6Z" transform="translate(-5.54 -4.76)"/><path class="cls-2" d="M121.77,41.1h-4l-7.7-12.63V41.1h-4V21.91h4l7.71,12.65V21.91h3.94Z" transform="translate(-5.54 -4.76)"/><path class="cls-2" d="M138.13,32.78h-7.6v5.15h8.91V41.1H126.58V21.91h12.84v3.2h-8.89v4.58h7.6Z" transform="translate(-5.54 -4.76)"/><line class="cls-3" x1="5.47" y1="6.25" x2="186.74" y2="187.52"/><line class="cls-3" x1="187.53" y1="6.25" x2="6.27" y2="187.52"/></svg>