<svg id="Ebene_1" data-name="Ebene 1" xmlns="http://www.w3.org/2000/svg" viewBox="0 0 193 193"><defs><style>.cls-1{fill:#ffbf22;}.cls-2{fill:#fff;}.cls-3{fill:#1d1d1b;}</style></defs><title>bin-yellow-dark-font</title><path class="cls-1" d="M5.54,24.76a20,20,0,0,1,20-20h153a20,20,0,0,1,20,20v153a20,20,0,0,1-20,20h-153a20,20,0,0,1-20-20Z" transform="translate(-5.54 -4.76)"/><path class="cls-2" d="M127.54,53.76a26,26,0,1,1-26-26A26,26,0,0,1,127.54,53.76Z" transform="translate(-5.54 -4.76)"/><path class="cls-3" d="M62.35,95.81l5.53,14.71,5.53-14.71h4.31V115H74.4v-6.32l.33-8.47L69.06,115H66.67L61,100.23l.33,8.45V115H58V95.81Z" transform="translate(-5.54 -4.76)"/><path class="cls-3" d="M94.23,106.44H86.35v5.9h9.21V115H83V95.81H95.47V98.5H86.35v5.3h7.88Z" transform="translate(-5.54 -4.76)"/><path class="cls-3" d="M113.76,98.5h-6V115h-3.31V98.5H98.53V95.81h15.23Z" transform="translate(-5.54 -4.76)"/><path class="cls-3" d="M126.79,110.54h-7.43L117.8,115h-3.47l7.25-19.19h3L131.84,115h-3.48Zm-6.5-2.69h5.57l-2.79-8Z" transform="translate(-5.54 -4.76)"/><path class="cls-3" d="M138.7,112.34h8.72V115h-12V95.81h3.33Z" transform="translate(-5.54 -4.76)"/><path class="cls-3" d="M49.28,140.27v7.13H45.94V128.21h7.35a9.09,9.09,0,0,1,3,.45,6.3,6.3,0,0,1,2.19,1.28,5.37,5.37,0,0,1,1.37,1.93,6.31,6.31,0,0,1,.47,2.44,6.42,6.42,0,0,1-.47,2.51,4.91,4.91,0,0,1-1.37,1.87,6.12,6.12,0,0,1-2.19,1.17,9.69,9.69,0,0,1-3,.41Zm0-2.67h4a5,5,0,0,0,1.65-.24,3,3,0,0,0,1.14-.67,2.51,2.51,0,0,0,.65-1,4.13,4.13,0,0,0,0-2.6,2.8,2.8,0,0,0-.65-1.1,3.23,3.23,0,0,0-1.14-.77,4.32,4.32,0,0,0-1.65-.28h-4Z" transform="translate(-5.54 -4.76)"/><path class="cls-3" d="M67.88,144.74H76.6v2.66h-12V128.21h3.33Z" transform="translate(-5.54 -4.76)"/><path class="cls-3" d="M91.5,142.94H84.07l-1.56,4.46H79l7.25-19.19h3l7.26,19.19H93.07ZM85,140.25h5.57l-2.79-8Z" transform="translate(-5.54 -4.76)"/><path class="cls-3" d="M110.11,142.46a3,3,0,0,0-.17-1,2.07,2.07,0,0,0-.63-.84,4.91,4.91,0,0,0-1.25-.73,17.15,17.15,0,0,0-2-.73,20.6,20.6,0,0,1-2.53-.94,8.48,8.48,0,0,1-2-1.23,5,5,0,0,1-1.31-1.61,4.37,4.37,0,0,1-.48-2.08,4.64,4.64,0,0,1,.5-2.13,5,5,0,0,1,1.39-1.69,6.44,6.44,0,0,1,2.15-1.11,9.27,9.27,0,0,1,2.77-.39,8.54,8.54,0,0,1,2.91.46,6.58,6.58,0,0,1,2.18,1.28,5.42,5.42,0,0,1,1.37,1.86,5.58,5.58,0,0,1,.47,2.26h-3.32a3.55,3.55,0,0,0-.22-1.28,2.76,2.76,0,0,0-.66-1,3,3,0,0,0-1.14-.66,5.76,5.76,0,0,0-3.15,0,2.92,2.92,0,0,0-1.07.55,2.25,2.25,0,0,0-.64.84,2.86,2.86,0,0,0-.2,1.06,2.13,2.13,0,0,0,1,1.78,11,11,0,0,0,3.08,1.32,16.84,16.84,0,0,1,2.8,1,8.4,8.4,0,0,1,2,1.31,4.73,4.73,0,0,1,1.16,1.65,5.22,5.22,0,0,1,.38,2.06,4.89,4.89,0,0,1-.48,2.19,4.58,4.58,0,0,1-1.37,1.64,6.44,6.44,0,0,1-2.15,1.05,10.36,10.36,0,0,1-2.82.36,10.05,10.05,0,0,1-2.73-.38,7.91,7.91,0,0,1-2.42-1.13,6.09,6.09,0,0,1-1.72-1.89,5.33,5.33,0,0,1-.65-2.67h3.34a3.47,3.47,0,0,0,.32,1.57,2.85,2.85,0,0,0,.88,1.06,3.78,3.78,0,0,0,1.33.61,6.67,6.67,0,0,0,1.65.19,4.09,4.09,0,0,0,2.61-.7A2.28,2.28,0,0,0,110.11,142.46Z" transform="translate(-5.54 -4.76)"/><path class="cls-3" d="M131.59,130.9h-6v16.5h-3.3V130.9h-5.94v-2.69h15.23Z" transform="translate(-5.54 -4.76)"/><path class="cls-3" d="M139,147.4h-3.32V128.21H139Z" transform="translate(-5.54 -4.76)"/><path class="cls-3" d="M159.08,141.16a8.42,8.42,0,0,1-.66,2.6,6.21,6.21,0,0,1-1.47,2.06,6.47,6.47,0,0,1-2.28,1.36,9.08,9.08,0,0,1-3.12.49,7.85,7.85,0,0,1-3.2-.64,6.86,6.86,0,0,1-2.44-1.82,8.32,8.32,0,0,1-1.55-2.85,12.24,12.24,0,0,1-.54-3.76V137a11.91,11.91,0,0,1,.56-3.75,8.31,8.31,0,0,1,1.58-2.87,6.94,6.94,0,0,1,2.48-1.83,8,8,0,0,1,3.27-.64,8.6,8.6,0,0,1,3,.49,6.5,6.5,0,0,1,2.23,1.37,6.4,6.4,0,0,1,1.44,2.09,9,9,0,0,1,.67,2.65h-3.33a7.4,7.4,0,0,0-.36-1.63,3.4,3.4,0,0,0-.73-1.24,3.22,3.22,0,0,0-1.2-.77,5.29,5.29,0,0,0-1.75-.26,4.32,4.32,0,0,0-2,.43,3.83,3.83,0,0,0-1.42,1.24,6,6,0,0,0-.85,2,12.27,12.27,0,0,0-.28,2.71v1.58a12.3,12.3,0,0,0,.25,2.61,6.29,6.29,0,0,0,.78,2,3.68,3.68,0,0,0,1.36,1.3,4,4,0,0,0,2,.46,5.63,5.63,0,0,0,1.82-.25,3.13,3.13,0,0,0,1.24-.74,3.4,3.4,0,0,0,.75-1.2,7.22,7.22,0,0,0,.39-1.63Z" transform="translate(-5.54 -4.76)"/><path class="cls-3" d="M42.44,177.31a6,6,0,0,1-.84.88,6.19,6.19,0,0,1-1.39.9,10.53,10.53,0,0,1-2,.7,12.83,12.83,0,0,1-2.81.28,8.71,8.71,0,0,1-3.31-.62,7.13,7.13,0,0,1-2.59-1.79,8.31,8.31,0,0,1-1.68-2.89,11.83,11.83,0,0,1-.6-3.92v-1.26a13.06,13.06,0,0,1,.54-3.91,8.25,8.25,0,0,1,1.55-2.91,6.64,6.64,0,0,1,2.48-1.8,8.36,8.36,0,0,1,3.32-.62,9.39,9.39,0,0,1,3.06.45,6.24,6.24,0,0,1,2.2,1.27,6.12,6.12,0,0,1,1.42,2,8.41,8.41,0,0,1,.68,2.47H39.16a6.05,6.05,0,0,0-.39-1.39A3.5,3.5,0,0,0,38,164a3.3,3.3,0,0,0-1.19-.72,4.7,4.7,0,0,0-1.68-.27,4.51,4.51,0,0,0-2,.44,3.78,3.78,0,0,0-1.43,1.27,5.87,5.87,0,0,0-.86,2.06,12.18,12.18,0,0,0-.28,2.77v1.29a10.27,10.27,0,0,0,.34,2.8,5.84,5.84,0,0,0,1,2A4.24,4.24,0,0,0,33.41,177a4.76,4.76,0,0,0,2.07.44,7.79,7.79,0,0,0,1.47-.12,5.32,5.32,0,0,0,1-.28,2.78,2.78,0,0,0,.69-.38,2.94,2.94,0,0,0,.44-.38v-3.76H35.17V170h7.27Z" transform="translate(-5.54 -4.76)"/><path class="cls-3" d="M54.51,172.41H50.79v7.39H47.46V160.61h6.75a10.18,10.18,0,0,1,2.94.38,6,6,0,0,1,2.18,1.1,4.72,4.72,0,0,1,1.35,1.82,6.27,6.27,0,0,1,.46,2.5,5.38,5.38,0,0,1-.93,3.22,5.85,5.85,0,0,1-2.59,2l4.32,8v.17H58.36Zm-3.72-2.68h3.43a5,5,0,0,0,1.57-.23,3.17,3.17,0,0,0,1.12-.66,2.63,2.63,0,0,0,.67-1,3.46,3.46,0,0,0,.23-1.27,4,4,0,0,0-.21-1.34,2.63,2.63,0,0,0-.65-1,2.78,2.78,0,0,0-1.11-.66,5.25,5.25,0,0,0-1.63-.23H50.79Z" transform="translate(-5.54 -4.76)"/><path class="cls-3" d="M76.88,171.24H69v5.9h9.22v2.66H65.66V160.61H78.12v2.69H69v5.3h7.89Z" transform="translate(-5.54 -4.76)"/><path class="cls-3" d="M93.49,171.24H85.61v5.9h9.22v2.66H82.27V160.61H94.73v2.69H85.61v5.3h7.88Z" transform="translate(-5.54 -4.76)"/><path class="cls-3" d="M114,179.8h-3.33l-8.56-13.61V179.8H98.76V160.61h3.33l8.58,13.67V160.61H114Z" transform="translate(-5.54 -4.76)"/><path class="cls-3" d="M127.08,179.8V160.61h5.67a9.07,9.07,0,0,1,3.51.65,7.81,7.81,0,0,1,2.73,1.83,8.41,8.41,0,0,1,1.77,2.88,10.56,10.56,0,0,1,.64,3.78v.94a10.69,10.69,0,0,1-.63,3.77,8.15,8.15,0,0,1-1.78,2.87,7.92,7.92,0,0,1-2.78,1.83,9.76,9.76,0,0,1-3.62.64Zm3.33-16.5v13.84h2.18a6.14,6.14,0,0,0,2.39-.44,4.4,4.4,0,0,0,1.7-1.27,5.39,5.39,0,0,0,1-2,9.78,9.78,0,0,0,.35-2.71v-1a7.37,7.37,0,0,0-1.36-4.77,4.82,4.82,0,0,0-3.94-1.65Z" transform="translate(-5.54 -4.76)"/><path class="cls-3" d="M161.12,170.71a12.24,12.24,0,0,1-.58,3.92,8.49,8.49,0,0,1-1.61,2.94,7.07,7.07,0,0,1-2.51,1.85,8.38,8.38,0,0,1-6.47,0,7.2,7.2,0,0,1-2.52-1.85,8.4,8.4,0,0,1-1.65-2.94,12.23,12.23,0,0,1-.59-3.92v-1a12.29,12.29,0,0,1,.59-3.93,8.67,8.67,0,0,1,1.63-3,7.07,7.07,0,0,1,2.51-1.86,8.52,8.52,0,0,1,6.48,0,7,7,0,0,1,2.52,1.86,8.48,8.48,0,0,1,1.62,3,12.3,12.3,0,0,1,.58,3.93Zm-3.34-1a11.48,11.48,0,0,0-.31-2.84,6.06,6.06,0,0,0-.9-2.07,4,4,0,0,0-1.46-1.26,4.41,4.41,0,0,0-2-.43,4.3,4.3,0,0,0-1.92.43,4.08,4.08,0,0,0-1.46,1.26,6.27,6.27,0,0,0-.92,2.07,11,11,0,0,0-.32,2.84v1a11.18,11.18,0,0,0,.32,2.85,6.37,6.37,0,0,0,.93,2.07,4,4,0,0,0,1.47,1.27,4.38,4.38,0,0,0,1.93.43,3.94,3.94,0,0,0,3.41-1.69,8.56,8.56,0,0,0,1.19-4.93Z" transform="translate(-5.54 -4.76)"/><path class="cls-3" d="M178.54,163.3h-6v16.5h-3.31V163.3h-5.93v-2.69h15.23Z" transform="translate(-5.54 -4.76)"/></svg>