<svg id="Ebene_1" data-name="Ebene 1" xmlns="http://www.w3.org/2000/svg" viewBox="0 0 193 193"><defs><style>.cls-1{fill:#ffbf22;}.cls-2{fill:#fff;}</style></defs><title>bin-yellow-white-font</title><path class="cls-1" d="M5.54,24.76a20,20,0,0,1,20-20h153a20,20,0,0,1,20,20v153a20,20,0,0,1-20,20h-153a20,20,0,0,1-20-20Z" transform="translate(-5.54 -4.76)"/><path class="cls-2" d="M127.54,53.76a26,26,0,1,1-26-26A26,26,0,0,1,127.54,53.76Z" transform="translate(-5.54 -4.76)"/><path class="cls-2" d="M62.72,95.81l4.93,13.92,4.91-13.92h5.19V115h-4v-5.24l.4-9.06L69,115H66.28l-5.17-14.29.4,9.05V115H57.56V95.81Z" transform="translate(-5.54 -4.76)"/><path class="cls-2" d="M94.11,106.69h-7.6v5.14h8.91V115H82.56V95.81H95.4V99H86.51v4.58h7.6Z" transform="translate(-5.54 -4.76)"/><path class="cls-2" d="M113.81,99h-5.88v16h-4V99h-5.8v-3.2h15.64Z" transform="translate(-5.54 -4.76)"/><path class="cls-2" d="M126.67,111.05h-6.94l-1.32,4h-4.2l7.14-19.19H125L132.2,115H128Zm-5.87-3.2h4.8l-2.41-7.19Z" transform="translate(-5.54 -4.76)"/><path class="cls-2" d="M139.3,111.83h8.4V115H135.35V95.81h4Z" transform="translate(-5.54 -4.76)"/><path class="cls-2" d="M49,140.64v6.76h-4V128.21h7.48a9.2,9.2,0,0,1,3,.47A6.61,6.61,0,0,1,57.86,130a5.74,5.74,0,0,1,1.42,2,6.56,6.56,0,0,1,.49,2.53,6.33,6.33,0,0,1-.49,2.52A5.17,5.17,0,0,1,57.86,139a6.42,6.42,0,0,1-2.27,1.22,9.79,9.79,0,0,1-3,.43Zm0-3.2h3.53a4.5,4.5,0,0,0,1.46-.21,2.65,2.65,0,0,0,1-.59,2.37,2.37,0,0,0,.58-.9,3.55,3.55,0,0,0,.18-1.15,3.94,3.94,0,0,0-.18-1.19,3,3,0,0,0-.58-1,2.73,2.73,0,0,0-1-.7,3.59,3.59,0,0,0-1.46-.27H49Z" transform="translate(-5.54 -4.76)"/><path class="cls-2" d="M67.79,144.23h8.39v3.17H63.83V128.21h4Z" transform="translate(-5.54 -4.76)"/><path class="cls-2" d="M90.89,143.45H84l-1.31,4H78.43l7.15-19.19h3.66l7.19,19.19H92.22ZM85,140.25h4.8l-2.41-7.19Z" transform="translate(-5.54 -4.76)"/><path class="cls-2" d="M109.52,142.37a2.74,2.74,0,0,0-.14-.9,1.85,1.85,0,0,0-.56-.75,5.13,5.13,0,0,0-1.15-.67,19.4,19.4,0,0,0-1.89-.7,23.44,23.44,0,0,1-2.49-.95,9.11,9.11,0,0,1-2-1.25,5.41,5.41,0,0,1-1.38-1.65,4.49,4.49,0,0,1-.51-2.19,4.6,4.6,0,0,1,.52-2.19,5,5,0,0,1,1.46-1.7,7.42,7.42,0,0,1,2.24-1.09,10.31,10.31,0,0,1,2.86-.38,8.87,8.87,0,0,1,2.9.44,6.59,6.59,0,0,1,2.23,1.23A5.44,5.44,0,0,1,113,131.5a5.67,5.67,0,0,1,.5,2.38h-3.95a3.1,3.1,0,0,0-.2-1.12,2.22,2.22,0,0,0-.58-.89,3,3,0,0,0-1-.57,4.22,4.22,0,0,0-1.4-.2,4.52,4.52,0,0,0-1.35.17,2.73,2.73,0,0,0-1,.47,2,2,0,0,0-.57.71,2.2,2.2,0,0,0-.19.87,1.87,1.87,0,0,0,1,1.59,10.85,10.85,0,0,0,2.84,1.2,17.8,17.8,0,0,1,2.77,1.08,8.34,8.34,0,0,1,2,1.34,5.14,5.14,0,0,1,1.2,1.69,5.27,5.27,0,0,1,.41,2.12,5,5,0,0,1-.49,2.26,4.59,4.59,0,0,1-1.41,1.66,6.65,6.65,0,0,1-2.19,1.05,10.68,10.68,0,0,1-2.87.36,11.09,11.09,0,0,1-1.9-.17,9.66,9.66,0,0,1-1.81-.5,7.91,7.91,0,0,1-1.6-.86,5.94,5.94,0,0,1-1.29-1.21,5.8,5.8,0,0,1-.86-1.59,6.17,6.17,0,0,1-.31-2h4a3.57,3.57,0,0,0,.28,1.47,2.53,2.53,0,0,0,.77,1,3.17,3.17,0,0,0,1.19.54,6.32,6.32,0,0,0,1.56.17,4.8,4.8,0,0,0,1.33-.16,2.66,2.66,0,0,0,.94-.46,1.72,1.72,0,0,0,.54-.69A2.07,2.07,0,0,0,109.52,142.37Z" transform="translate(-5.54 -4.76)"/><path class="cls-2" d="M132,131.41h-5.88v16h-4v-16h-5.8v-3.2H132Z" transform="translate(-5.54 -4.76)"/><path class="cls-2" d="M139.78,147.4h-4V128.21h4Z" transform="translate(-5.54 -4.76)"/><path class="cls-2" d="M159.86,141a7.82,7.82,0,0,1-.66,2.69,6.19,6.19,0,0,1-1.53,2.1,7,7,0,0,1-2.36,1.37,9.48,9.48,0,0,1-3.18.5,8.31,8.31,0,0,1-3.31-.64,6.8,6.8,0,0,1-2.49-1.84,8.3,8.3,0,0,1-1.57-2.91,12.34,12.34,0,0,1-.55-3.83v-1.26a12.1,12.1,0,0,1,.57-3.84,8.51,8.51,0,0,1,1.6-2.91,7,7,0,0,1,2.51-1.85,8.16,8.16,0,0,1,3.3-.64,9.37,9.37,0,0,1,3.17.5,6.84,6.84,0,0,1,2.34,1.41,6.51,6.51,0,0,1,1.5,2.15,9.15,9.15,0,0,1,.69,2.71h-4a6,6,0,0,0-.29-1.51,3.08,3.08,0,0,0-.67-1.11,2.68,2.68,0,0,0-1.12-.68,5.36,5.36,0,0,0-1.66-.23,3.35,3.35,0,0,0-3,1.46,8.22,8.22,0,0,0-1,4.51v1.29a13.32,13.32,0,0,0,.22,2.61,5.54,5.54,0,0,0,.68,1.88,3,3,0,0,0,1.22,1.12,3.91,3.91,0,0,0,1.79.38,5.49,5.49,0,0,0,1.62-.21,2.76,2.76,0,0,0,1.84-1.72,5.36,5.36,0,0,0,.32-1.5Z" transform="translate(-5.54 -4.76)"/><path class="cls-2" d="M42.5,177.38a6.57,6.57,0,0,1-2.42,1.75,11.79,11.79,0,0,1-2.12.67,13,13,0,0,1-2.8.27,9,9,0,0,1-3.39-.62,6.88,6.88,0,0,1-2.63-1.79,8.33,8.33,0,0,1-1.7-2.92,12,12,0,0,1-.6-4v-1.14a12.7,12.7,0,0,1,.57-4A8.43,8.43,0,0,1,29,162.77a6.74,6.74,0,0,1,2.53-1.8,8.45,8.45,0,0,1,3.31-.62,10.09,10.09,0,0,1,3.24.46,6.37,6.37,0,0,1,2.28,1.32,5.9,5.9,0,0,1,1.43,2,8.75,8.75,0,0,1,.67,2.57H38.65a5.58,5.58,0,0,0-.37-1.31,2.83,2.83,0,0,0-1.76-1.64,4.56,4.56,0,0,0-1.52-.22,3.5,3.5,0,0,0-3.08,1.53,8,8,0,0,0-1.06,4.56v1.16A7.55,7.55,0,0,0,32,175.35a3.91,3.91,0,0,0,3.36,1.54,7.41,7.41,0,0,0,1.24-.09,5.33,5.33,0,0,0,.9-.23,3.08,3.08,0,0,0,.63-.31,2,2,0,0,0,.41-.32v-3.31H35v-2.91H42.5Z" transform="translate(-5.54 -4.76)"/><path class="cls-2" d="M54.16,172.78H51v7H47.06V160.61h7.13a10.51,10.51,0,0,1,3,.38,6.21,6.21,0,0,1,2.23,1.1,4.82,4.82,0,0,1,1.39,1.82,5.93,5.93,0,0,1,.49,2.5A6.88,6.88,0,0,1,61,168.3a4.73,4.73,0,0,1-.68,1.49,4.88,4.88,0,0,1-1.08,1.14,6.93,6.93,0,0,1-1.43.85L62,179.62v.18H57.76ZM51,169.57H54.2a4.08,4.08,0,0,0,1.37-.2,2.67,2.67,0,0,0,1-.58,2.39,2.39,0,0,0,.59-.9,3.24,3.24,0,0,0,.2-1.16,2.92,2.92,0,0,0-.77-2.14,3.22,3.22,0,0,0-2.37-.78H51Z" transform="translate(-5.54 -4.76)"/><path class="cls-2" d="M77.19,171.49h-7.6v5.14h8.92v3.17H65.64V160.61H78.48v3.2H69.59v4.58h7.6Z" transform="translate(-5.54 -4.76)"/><path class="cls-2" d="M93.72,171.49H86.13v5.14H95v3.17H82.18V160.61H95v3.2H86.13v4.58h7.59Z" transform="translate(-5.54 -4.76)"/><path class="cls-2" d="M114.19,179.8h-4l-7.7-12.63V179.8h-4V160.61h4l7.72,12.66V160.61h3.94Z" transform="translate(-5.54 -4.76)"/><path class="cls-2" d="M126.79,179.8V160.61h5.91a9.09,9.09,0,0,1,3.55.67,7.84,7.84,0,0,1,2.77,1.87,8.52,8.52,0,0,1,1.8,2.89,10.43,10.43,0,0,1,.65,3.75v.87a10.54,10.54,0,0,1-.64,3.73,8.39,8.39,0,0,1-1.81,2.89,8,8,0,0,1-2.79,1.87,9.57,9.57,0,0,1-3.57.65Zm4-16v12.82h1.91a4.27,4.27,0,0,0,3.57-1.55,7,7,0,0,0,1.23-4.42v-.9a7,7,0,0,0-1.21-4.44,4.3,4.3,0,0,0-3.55-1.51Z" transform="translate(-5.54 -4.76)"/><path class="cls-2" d="M161.19,170.64a12.38,12.38,0,0,1-.59,4,8.69,8.69,0,0,1-1.67,3,7.38,7.38,0,0,1-2.58,1.87,8.75,8.75,0,0,1-6.62,0,7.51,7.51,0,0,1-2.59-1.87,8.56,8.56,0,0,1-1.69-3,11.83,11.83,0,0,1-.61-4v-.84a12.12,12.12,0,0,1,.6-3.94,8.64,8.64,0,0,1,1.68-3,7.2,7.2,0,0,1,2.59-1.88,8.75,8.75,0,0,1,6.62,0,7.17,7.17,0,0,1,2.58,1.88,8.64,8.64,0,0,1,1.68,3,12.12,12.12,0,0,1,.6,3.94Zm-4-.87a8.11,8.11,0,0,0-1.08-4.59,3.83,3.83,0,0,0-6.17,0,8.11,8.11,0,0,0-1.08,4.59v.87a11.2,11.2,0,0,0,.28,2.66,6.17,6.17,0,0,0,.82,1.94,3.51,3.51,0,0,0,1.31,1.18,3.8,3.8,0,0,0,1.78.41,3.47,3.47,0,0,0,3.07-1.59,8.15,8.15,0,0,0,1.07-4.6Z" transform="translate(-5.54 -4.76)"/><path class="cls-2" d="M178.74,163.81h-5.88v16h-4v-16h-5.8v-3.2h15.63Z" transform="translate(-5.54 -4.76)"/></svg>