<svg id="Ebene_1" data-name="Ebene 1" xmlns="http://www.w3.org/2000/svg" viewBox="0 0 196.56 185"><defs><style>.cls-1{fill:#ff8300;}.cls-2{fill:#00c53b;}.cls-3{fill:#00aaf7;}.cls-4{fill:#b8b8b8;}</style></defs><title>WDA-Logo-grey-orange-green-blue</title><path class="cls-1" d="M19.71,132.55l-17.8-66H16.64l7.12,29.56c1.29,5.44,2,8.61,3.66,16.42,1.09-7.52,1.68-11.47,2.77-16.42L36.42,66.6H50.65l6.13,30.06c1.29,6.52,2,10.08,2.87,15.92.59-2.87,1.48-8.21,3.36-15.92L70.33,66.6H85.06l-18.39,66H52.83l-6-27.49c-1.49-6.82-2.87-13.94-3.27-17.1-1.28,7.12-2.07,11.37-3.36,17.1l-6.23,27.49Z" transform="translate(-1.91 -7)"/><path class="cls-2" d="M85.85,66.6H108.2c13.35,0,20.37,2.37,26.3,9.1,5.24,5.93,8.11,14.33,8.11,23.53,0,9.59-3.17,18.69-8.61,24.62-5.73,6.13-13,8.7-25.31,8.7H85.85Zm24.82,53.29c6.72,0,10.78-1.88,13.54-6.42,2.18-3.66,3.27-8.21,3.27-13.94,0-5.54-1-9.89-3.17-13.65-2.57-4.55-6.62-6.62-12.65-6.62h-11v40.63Z" transform="translate(-1.91 -7)"/><path class="cls-3" d="M156.25,119.3l-4.15,13.25H136l23-66h18.49l21,66H181.66L178.1,119.3Zm11.67-38-8,25.81h14.93Z" transform="translate(-1.91 -7)"/><path class="cls-4" d="M54.27,59.91A59.59,59.59,0,0,1,122,44.83l-8.68,15.08H156l18.37,0L143.78,7l-9,15.58A85.41,85.41,0,0,0,26,55.32q-1.38,2.26-2.6,4.59Z" transform="translate(-1.91 -7)"/><path class="cls-4" d="M143,139a60,60,0,0,1-67.73,15.16L84,139.08l-61.11,0L53.46,192l9-15.59a83.79,83.79,0,0,0,35.79,8A86.58,86.58,0,0,0,118.71,182a84.38,84.38,0,0,0,52.55-38.27q1.4-2.3,2.62-4.65Z" transform="translate(-1.91 -7)"/></svg>