<svg id="Ebene_1" data-name="Ebene 1" xmlns="http://www.w3.org/2000/svg" viewBox="0 0 587.69 47.27"><defs><style>.cls-1{fill:#ff8300;}.cls-2{fill:#00c53b;}.cls-3{fill:#00aaf7;}</style></defs><title>WDA-Label-orange-green-blue</title><path class="cls-1" d="M11.38,40.05,1,1.6H9.59l4.15,17.24c.75,3.17,1.15,5,2.13,9.57.64-4.38,1-6.69,1.62-9.57L21.12,1.6h8.3L33,19.13c.75,3.8,1.15,5.88,1.67,9.28.34-1.67.86-4.79,2-9.28L40.89,1.6h8.59L38.76,40.05H30.69L27.17,24c-.86-4-1.67-8.13-1.9-10-.75,4.15-1.21,6.63-2,10l-3.63,16Z" transform="translate(-1 -1.6)"/><path class="cls-1" d="M51.15,21c.52-6.45,4.5-9.57,12.34-9.57,4.21,0,7.43,1,9.62,2.94,2,1.79,2.77,4,2.77,8.13v12.8c0,3,.12,3.4,1,4.78H68.56a20.65,20.65,0,0,1-.63-2.19,11,11,0,0,1-8,2.94c-6.11,0-10.2-3.51-10.2-8.76S53,24.2,60.78,22.87l4.44-.74c1.84-.29,2.48-.81,2.48-1.91,0-1.61-1.62-2.59-4.33-2.59-2.94,0-4.55,1.09-4.9,3.34Zm16.78,5.82a16.12,16.12,0,0,1-3,.87L62,28.29c-2.94.64-4.21,1.67-4.21,3.35,0,1.84,1.61,2.94,4.15,2.94a6.41,6.41,0,0,0,6-3.52Z" transform="translate(-1 -1.6)"/><path class="cls-1" d="M97.68,20.57c-.35-2.08-2-3.17-4.73-3.17-2.36,0-3.92.92-3.92,2.3,0,1,.81,1.56,3.4,2.14l5.13,1.09c3.41.75,5.08,1.44,6.35,2.71A7.88,7.88,0,0,1,106,31.23c0,5.88-4.78,9.57-12.51,9.57S81,37.17,80.5,31h7.67c.46,2.6,2.19,3.86,5.47,3.86,2.54,0,4.27-1.09,4.27-2.7,0-1.27-.92-2-3.11-2.54l-5.08-1.15c-6.11-1.39-8.47-3.58-8.47-8,0-5.59,4.5-9,11.88-9,7.14,0,11.52,3.23,12.22,9.11Z" transform="translate(-1 -1.6)"/><path class="cls-1" d="M125.48,18.32h-5V29.16c0,4.38.18,4.72,2.08,4.72h2.94v6.17h-5c-3.57,0-5.36-.52-6.57-1.84s-1.61-2.88-1.61-7.21V18.32h-3.92V12.56h3.92V3.74h8.18v8.82h5Z" transform="translate(-1 -1.6)"/><path class="cls-1" d="M136.57,28.52c.52,3.81,2.77,5.88,6.28,5.88a5.3,5.3,0,0,0,4.85-2.48H156c-1.56,5.42-6.75,8.88-13.38,8.88-8.59,0-14.29-5.88-14.29-14.64s5.88-14.7,14.23-14.7c5.88,0,10.32,2.94,12.4,8.19a22.55,22.55,0,0,1,1.38,8.87Zm11.36-5.76c-.35-3.23-2.25-5.07-5.42-5.07s-5.25,1.84-5.88,5.07Z" transform="translate(-1 -1.6)"/><path class="cls-2" d="M168.45,1.6h13c7.78,0,11.87,1.39,15.33,5.31a20.58,20.58,0,0,1,4.73,13.72c0,5.59-1.84,10.89-5,14.35-3.34,3.57-7.6,5.07-14.75,5.07H168.45Zm14.47,31.07c3.92,0,6.28-1.09,7.9-3.74a15.58,15.58,0,0,0,1.9-8.13,15.43,15.43,0,0,0-1.84-8C189.38,10.19,187,9,183.5,9h-6.4V32.67Z" transform="translate(-1 -1.6)"/><path class="cls-2" d="M215.46,8.35h-8.18V1.6h8.18Zm0,31.7h-8.18V12.21h8.18Z" transform="translate(-1 -1.6)"/><path class="cls-2" d="M237.43,20.57c-.35-2.08-2-3.17-4.73-3.17-2.36,0-3.92.92-3.92,2.3,0,1,.81,1.56,3.4,2.14l5.13,1.09c3.4.75,5.08,1.44,6.34,2.71a7.84,7.84,0,0,1,2.08,5.59c0,5.88-4.79,9.57-12.51,9.57s-12.51-3.63-13-9.8h7.67c.46,2.6,2.19,3.86,5.47,3.86,2.54,0,4.27-1.09,4.27-2.7,0-1.27-.92-2-3.11-2.54l-5.08-1.15c-6.11-1.39-8.47-3.58-8.47-8,0-5.59,4.49-9,11.87-9,7.15,0,11.53,3.23,12.23,9.11Z" transform="translate(-1 -1.6)"/><path class="cls-2" d="M258.88,12.21l-.23,3.29c2.36-3,4.38-4,7.84-4,7.32,0,12.28,5.94,12.28,14.58,0,8.88-4.9,14.76-12.22,14.76a10.05,10.05,0,0,1-7.5-3V48.87h-8.18V12.21Zm-.12,13.89c0,5,2.31,8.07,6,8.07s5.94-3.11,5.94-8c0-5-2.25-8.13-6-8.13S258.76,21.2,258.76,26.1Z" transform="translate(-1 -1.6)"/><path class="cls-2" d="M312.16,26.33c0,8.42-6.22,14.47-14.81,14.47s-14.76-6-14.76-14.7,6.11-14.64,14.76-14.64C306.17,11.46,312.16,17.51,312.16,26.33Zm-21.33-.23c0,5.19,2.37,8.19,6.52,8.19s6.57-3,6.57-8c0-5.37-2.36-8.31-6.57-8.31S290.83,21,290.83,26.1Z" transform="translate(-1 -1.6)"/><path class="cls-2" d="M332.58,20.57c-.34-2.08-2-3.17-4.72-3.17-2.37,0-3.92.92-3.92,2.3,0,1,.8,1.56,3.4,2.14l5.13,1.09c3.4.75,5.07,1.44,6.34,2.71a7.84,7.84,0,0,1,2.08,5.59c0,5.88-4.79,9.57-12.51,9.57s-12.51-3.63-13-9.8h7.66c.46,2.6,2.19,3.86,5.48,3.86,2.53,0,4.26-1.09,4.26-2.7,0-1.27-.92-2-3.11-2.54l-5.07-1.15c-6.11-1.39-8.48-3.58-8.48-8,0-5.59,4.5-9,11.88-9,7.15,0,11.53,3.23,12.22,9.11Z" transform="translate(-1 -1.6)"/><path class="cls-2" d="M346,21c.52-6.45,4.49-9.57,12.33-9.57,4.21,0,7.44,1,9.63,2.94,2,1.79,2.77,4,2.77,8.13v12.8c0,3,.11,3.4,1,4.78h-8.36c-.35-1-.35-1.15-.64-2.19a10.93,10.93,0,0,1-8,2.94c-6.11,0-10.2-3.51-10.2-8.76s3.28-7.84,11.06-9.17l4.44-.74c1.85-.29,2.48-.81,2.48-1.91,0-1.61-1.61-2.59-4.32-2.59-2.94,0-4.56,1.09-4.9,3.34Zm16.77,5.82a15.66,15.66,0,0,1-3,.87l-2.94.63c-2.94.64-4.2,1.67-4.2,3.35,0,1.84,1.61,2.94,4.15,2.94a6.39,6.39,0,0,0,6-3.52Z" transform="translate(-1 -1.6)"/><path class="cls-2" d="M385.48,40.05H377.3V1.6h8.18Z" transform="translate(-1 -1.6)"/><path class="cls-3" d="M406.64,32.33l-2.42,7.72h-9.4L408.26,1.6H419l12.22,38.45h-9.8l-2.08-7.72Zm6.8-22.14-4.66,15.05h8.7Z" transform="translate(-1 -1.6)"/><path class="cls-3" d="M460.71,40.05h-7.84v-3a8.62,8.62,0,0,1-7.67,3.74c-7.38,0-12.28-5.88-12.28-14.64s5-14.76,12.46-14.76a9.2,9.2,0,0,1,7.14,2.88V1.6h8.19ZM441,26.1c0,4.84,2.36,8.07,5.88,8.07s5.93-3.23,5.93-8c0-5-2.36-8.19-5.93-8.19S441,21.26,441,26.1Z" transform="translate(-1 -1.6)"/><path class="cls-3" d="M474.05,40.05l-10-27.84h8.59l3.11,10.66c.58,2,1.27,4.62,2.19,8,.64-3.12,1.33-6.4,1.73-8l2.83-10.66h8.76l-9.46,27.84Z" transform="translate(-1 -1.6)"/><path class="cls-3" d="M502.86,8.35h-8.18V1.6h8.18Zm0,31.7h-8.18V12.21h8.18Z" transform="translate(-1 -1.6)"/><path class="cls-3" d="M524.83,20.57c-.35-2.08-2-3.17-4.73-3.17-2.36,0-3.92.92-3.92,2.3,0,1,.81,1.56,3.4,2.14l5.13,1.09c3.4.75,5.08,1.44,6.34,2.71a7.84,7.84,0,0,1,2.08,5.59c0,5.88-4.79,9.57-12.51,9.57s-12.51-3.63-13-9.8h7.67c.46,2.6,2.19,3.86,5.47,3.86,2.54,0,4.27-1.09,4.27-2.7,0-1.27-.92-2-3.11-2.54l-5.08-1.15c-6.11-1.39-8.47-3.58-8.47-8,0-5.59,4.5-9,11.87-9,7.15,0,11.53,3.23,12.23,9.11Z" transform="translate(-1 -1.6)"/><path class="cls-3" d="M566.1,26.33c0,8.42-6.22,14.47-14.81,14.47s-14.76-6-14.76-14.7,6.11-14.64,14.76-14.64C560.11,11.46,566.1,17.51,566.1,26.33Zm-21.32-.23c0,5.19,2.36,8.19,6.51,8.19s6.57-3,6.57-8c0-5.37-2.36-8.31-6.57-8.31S544.78,21,544.78,26.1Z" transform="translate(-1 -1.6)"/><path class="cls-3" d="M579.29,12.21l-.23,5c1.61-4.5,3.69-5.77,9.63-5.71v7.72a18.45,18.45,0,0,0-2.08-.17c-2.82,0-5.13,1.27-6.05,3.35-.81,1.84-1.1,4.49-1.1,9.85v7.84h-8.18V12.21Z" transform="translate(-1 -1.6)"/></svg>